SplineFontDB: 3.0
FontName: Klein-Regular
FullName: Klein
FamilyName: Klein
Weight: Regular
Copyright: Copyright (c) 2016, mrkline
UComments: "2016-1-15: Created with FontForge (http://fontforge.org)"
Version: 0.1
ItalicAngle: 0
UnderlinePosition: -100
UnderlineWidth: 50
Ascent: 800
Descent: 200
InvalidEm: 0
LayerCount: 2
Layer: 0 0 "Back" 1
Layer: 1 0 "Fore" 0
XUID: [1021 77 -1879282181 14856649]
FSType: 0
OS2Version: 0
OS2_WeightWidthSlopeOnly: 0
OS2_UseTypoMetrics: 1
CreationTime: 1452917949
ModificationTime: 1455606389
PfmFamily: 17
TTFWeight: 500
TTFWidth: 5
LineGap: 100
VLineGap: 0
OS2TypoAscent: 0
OS2TypoAOffset: 1
OS2TypoDescent: 0
OS2TypoDOffset: 1
OS2TypoLinegap: 200
OS2WinAscent: 0
OS2WinAOffset: 1
OS2WinDescent: 0
OS2WinDOffset: 1
HheadAscent: 0
HheadAOffset: 1
HheadDescent: 0
HheadDOffset: 1
OS2XHeight: 430
OS2Vendor: 'PfEd'
Lookup: 4 0 1 "'liga' standard ligatures" { "'liga' standard ligatures-subtable"  } ['liga' ('DFLT' <'dflt' > 'latn' <'dflt' > ) ]
Lookup: 4 0 0 "'dlig' discretionary/historic ligatures" { "'dlig' discretionary/historic ligatures-subtable"  } ['dlig' ('DFLT' <'dflt' > 'latn' <'dflt' > ) ]
Lookup: 258 0 0 "'kern' Horizontal Kerning" { "by class" [150,0,2] "per glyph" [100,15,2] } ['kern' ('DFLT' <'dflt' > 'latn' <'dflt' > ) ]
MarkAttachClasses: 1
DEI: 91125
KernClass2: 10 11 "by class"
 1 A
 5 V W Y
 1 T
 3 a u
 5 b o p
 5 v w y
 5 f f_f
 1 r
 43 quotesingle quoteleft quotedbl quotedblleft
 1 A
 5 V W Y
 5 T T_h
 17 a g m n p r s x z
 9 c d e o q
 3 i j
 5 v w y
 27 f t f_f f_i f_f_i f_l f_f_l
 45 quotesingle quoteright quotedbl quotedblright
 1 u

StartChar: l
Encoding: 108 108 0
Width: 250
VWidth: 838
Flags: HMW
LayerCount: 2
Fore
SplineSet
165 30 m 1
 225 20 l 1
 225 0 l 1
 25 0 l 1
 25 20 l 1
 85 30 l 1
 85 625 l 1
 25 645 l 1
 25 655 l 1
 105 670 125 680 155 695 c 1
 165 695 l 1
 165 30 l 1
EndSplineSet
Validated: 1
EndChar

StartChar: o
Encoding: 111 111 1
Width: 511
VWidth: 838
Flags: HMW
LayerCount: 2
Back
SplineSet
256 453 m 4
 288 453 317 447 344 435 c 4
 371 423 393 407 413 387 c 4
 433 367 448 342 459 314 c 4
 470 286 476 255 476 222 c 4
 476 189 470 158 459 130 c 4
 448 102 433 78 413 57 c 4
 393 36 371 20 344 9 c 4
 317 -2 288 -8 256 -8 c 4
 224 -8 195 -2 168 9 c 4
 141 20 118 36 98 57 c 4
 78 78 63 102 52 130 c 4
 41 158 35 189 35 222 c 4
 35 255 41 286 52 314 c 4
 63 342 78 367 98 387 c 4
 118 407 141 423 168 435 c 4
 195 447 224 453 256 453 c 4
124 222 m 4
 124 161 136 114 159 80 c 4
 182 46 214 29 255 29 c 4
 296 29 329 46 352 80 c 4
 375 114 387 162 387 223 c 4
 387 283 375 330 352 364 c 4
 329 398 297 415 256 415 c 4
 215 415 182 398 159 364 c 4
 136 330 124 283 124 222 c 4
EndSplineSet
Fore
SplineSet
476 222 m 3
 476 90 382 -10 257 -10 c 3
 124 -10 35 94 35 222 c 3
 35 355 132 455 254 455 c 3
 386 455 476 350 476 222 c 3
256 406 m 3
 161 406 124 326 124 222 c 3
 124 119 160 37 255 37 c 3
 350 37 387 119 387 223 c 3
 387 326 351 406 256 406 c 3
EndSplineSet
Validated: 1
EndChar

StartChar: x
Encoding: 120 120 2
Width: 500
VWidth: 838
Flags: HMW
LayerCount: 2
Fore
SplineSet
303 425 m 1
 303 445 l 1
 488 445 l 1
 488 425 l 1
 451 415 439 416 392 354 c 2
 303 238 l 1
 423 53 l 2
 440 27 450 24 490 20 c 1
 490 0 l 1
 290 0 l 1
 290 20 l 1
 314 22 336 19 336 34 c 3
 336 45 330 51 323 62 c 2
 251 171 l 1
 167 60 l 2
 161 51 157 44 157 38 c 0
 157 25 174 23 195 20 c 1
 195 0 l 1
 10 0 l 1
 10 20 l 1
 67 27 85 51 113 88 c 2
 215 227 l 1
 109 392 l 1
 91 417 73 420 36 425 c 1
 36 445 l 1
 236 445 l 1
 236 425 l 1
 216 423 196 424 196 410 c 0
 196 404 201 394 209 382 c 2
 268 292 l 1
 334 379 l 2
 342 390 350 399 350 406 c 3
 350 414 335 419 303 425 c 1
EndSplineSet
Validated: 1
EndChar

StartChar: y
Encoding: 121 121 3
Width: 489
VWidth: 838
Flags: HMW
LayerCount: 2
Fore
SplineSet
48 -162 m 3
 48 -135 66 -118 94 -118 c 3
 138 -118 125 -164 142 -164 c 0
 151 -164 165 -151 176 -118 c 2
 223 19 l 5
 70 394 l 1
 59 417 45 422 13 425 c 1
 13 445 l 1
 213 445 l 1
 213 425 l 1
 186 425 162 424 162 407 c 3
 162 402 164 397 168 386 c 2
 262 146 l 1
 266 146 l 1
 344 387 l 2
 346 393 347 397 347 402 c 3
 347 416 336 425 295 425 c 1
 295 445 l 1
 485 445 l 1
 485 425 l 1
 448 419 418 416 402 389 c 0
 398 382 394 372 390 361 c 2
 226 -121 l 2
 199 -200 159 -218 116 -218 c 3
 79 -218 48 -198 48 -162 c 3
EndSplineSet
Validated: 1
EndChar

StartChar: z
Encoding: 122 122 4
Width: 398
VWidth: 838
Flags: HMW
LayerCount: 2
Fore
SplineSet
378 445 m 1
 378 420 l 5
 118 35 l 1
 308 35 l 1
 343 135 l 1
 367 135 l 1
 357 0 l 1
 15 0 l 1
 15 25 l 1
 267 405 l 1
 87 405 l 1
 52 305 l 1
 32 305 l 1
 42 445 l 1
 378 445 l 1
EndSplineSet
Validated: 1
EndChar

StartChar: i
Encoding: 105 105 5
Width: 250
VWidth: 838
Flags: HMW
LayerCount: 2
Fore
SplineSet
155 455 m 1
 165 455 l 1
 165 30 l 1
 225 20 l 1
 225 0 l 1
 25 0 l 1
 25 20 l 1
 85 30 l 1
 85 385 l 1
 25 405 l 1
 25 415 l 1
 105 430 125 440 155 455 c 1
125 544 m 7
 95 544 70 570 70 599 c 7
 70 631 93 654 125 654 c 7
 158 654 180 632 180 599 c 7
 180 568 157 544 125 544 c 7
EndSplineSet
EndChar

StartChar: t
Encoding: 116 116 6
Width: 303
VWidth: 838
Flags: HMW
LayerCount: 2
Back
SplineSet
626 59 m 1
 596 20 557 0 507 0 c 0
 453 0 387 20 387 105 c 2
 387 387 l 1
 317 387 l 1
 317 415 l 1
 399 418 437 463 436 566 c 1
 467 566 l 1
 467 415 l 1
 587 415 l 1
 587 387 l 1
 467 387 l 1
 467 306 467 225 467 144 c 0
 467 68 488 33 530 33 c 0
 555 33 574 45 603 78 c 1
 626 59 l 1
289 55 m 1
 267 21 226 -8 174 -8 c 0
 131 -8 98 15 88 51 c 0
 84 65 81 85 81 111 c 2
 81 415 l 1
 28 415 l 1
 26 428 l 1
 146 554 l 1
 161 552 l 1
 161 444 l 1
 281 444 l 1
 275 415 l 1
 161 415 l 1
 161 118 l 2
 161 86 161 67 169 55 c 0
 179.182941996 39.7255870061 192 31 211 31 c 0
 238 31 262 48 275 65 c 1
 289 55 l 1
EndSplineSet
Fore
SplineSet
298 50 m 1
 276 17 235 -10 183 -10 c 0
 140 -10 108 15 97 51 c 0
 93 65 90 85 90 111 c 2
 90 405 l 1
 25 405 l 1
 25 445 l 1
 89 445 140 513 150 587 c 1
 170 587 l 1
 170 445 l 1
 290 445 l 1
 290 405 l 1
 170 405 l 1
 170 118 l 2
 170 95 171 67 178 55 c 0
 187 39 199 30 219 30 c 0
 246 30 270 48 283 65 c 1
 298 50 l 1
EndSplineSet
Validated: 1
EndChar

StartChar: s
Encoding: 115 115 7
Width: 355
VWidth: 838
Flags: HMW
LayerCount: 2
Fore
SplineSet
40 331 m 3
 40 417 87 455 178 455 c 3
 212 455 272 447 295 438 c 1
 295 321 l 1
 277 321 l 1
 269 391 236 405 179 405 c 3
 136 405 107 388 107 360 c 3
 107 320 132 301 160 285 c 0
 192 267 233 254 262 233 c 0
 293 211 315 180 315 127 c 3
 315 39 257 -10 167 -10 c 3
 130 -10 73 0 44 10 c 1
 40 146 l 1
 60 146 l 1
 67 59 103 35 167 35 c 3
 234 35 250 68 250 94 c 3
 250 136 223 158 195 175 c 0
 163 194 124 207 94 228 c 0
 64 249 40 280 40 331 c 3
EndSplineSet
Validated: 1
EndChar

StartChar: h
Encoding: 104 104 8
Width: 517
VWidth: 838
Flags: HMW
LayerCount: 2
Fore
SplineSet
160 405 m 1
 202 442 239 455 308 455 c 3
 359 455 421 428 432 388 c 0
 437 369 437 349 437 326 c 2
 437 326 437 129 437 30 c 1
 497 20 l 1
 497 0 l 1
 297 0 l 1
 297 20 l 1
 357 30 l 1
 357 275 l 2
 357 349 352 405 281 405 c 3
 234 405 193 391 160 355 c 1
 160 30 l 1
 220 20 l 1
 220 0 l 1
 20 0 l 1
 20 20 l 1
 80 30 l 1
 80 625 l 1
 20 645 l 1
 20 655 l 1
 100 670 120 680 150 695 c 1
 160 695 l 1
 160 405 l 1
EndSplineSet
Validated: 1
EndChar

StartChar: b
Encoding: 98 98 9
Width: 498
VWidth: 838
Flags: HMW
LayerCount: 2
Fore
SplineSet
70 625 m 5
 10 645 l 5
 10 655 l 5
 90 670 110 680 140 695 c 5
 150 695 l 5
 150 405 l 1
 185 442 227 455 277 455 c 3
 397 455 463 356 463 236 c 0
 463 96 378 -10 242 -10 c 0
 200 -10 161 4 127 30 c 1
 123 30 l 1
 84 0 l 1
 70 0 l 1
 70 625 l 5
150 126 m 2
 150 66 183 35 241 35 c 3
 328 35 373 147 373 236 c 3
 373 337 335 405 242 405 c 3
 200 405 170 380 150 355 c 1
 150 126 l 2
EndSplineSet
Validated: 1
EndChar

StartChar: v
Encoding: 118 118 10
Width: 485
VWidth: 838
Flags: HMW
LayerCount: 2
Fore
SplineSet
300 425 m 1
 300 445 l 1
 470 445 l 1
 470 425 l 1
 418 416 401 408 385 363 c 2
 253 -10 l 1
 217 -10 l 1
 67 392 l 2
 56 420 45 422 10 425 c 1
 10 445 l 1
 210 445 l 1
 210 425 l 1
 180 423 156 427 156 407 c 3
 156 401 158 392 161 382 c 2
 250 123 l 1
 253 123 l 1
 344 385 l 2
 345 387 346 391 346 394 c 3
 346 410 331 422 300 425 c 1
EndSplineSet
Validated: 1
EndChar

StartChar: u
Encoding: 117 117 11
Width: 497
VWidth: 838
Flags: HMW
LayerCount: 2
Fore
SplineSet
337 35 m 1
 298 0 258 -10 190 -10 c 0
 100 -10 82 50 82 142 c 2
 82 415 l 1
 22 425 l 1
 22 445 l 1
 162 445 l 1
 162 162 l 2
 162 91 164 35 232 35 c 0
 280 35 312 55 337 85 c 1
 337 415 l 1
 277 425 l 1
 277 445 l 1
 417 445 l 1
 417 50 l 1
 477 30 l 1
 477 20 l 1
 357 -10 l 1
 347 -10 l 1
 347 30 l 1
 337 35 l 1
EndSplineSet
Validated: 1
EndChar

StartChar: c
Encoding: 99 99 12
Width: 447
VWidth: 838
Flags: HMW
LayerCount: 2
Fore
SplineSet
409 354 m 3
 409 327 397 306 371 306 c 3
 342 306 325 324 321 359 c 0
 317 396 294 405 257 405 c 3
 152 405 121 333 121 233 c 3
 121 129 165 35 265 35 c 3
 332 35 369 88 401 126 c 1
 417 118 l 1
 382 48 341 -10 240 -10 c 3
 117 -10 35 87 35 216 c 3
 35 355 126 455 258 455 c 3
 327 455 409 416 409 354 c 3
EndSplineSet
Validated: 1
EndChar

StartChar: e
Encoding: 101 101 13
Width: 463
VWidth: 838
Flags: HMW
LayerCount: 2
Back
SplineSet
409 354 m 3
 409 327 397 306 371 306 c 3
 342 306 325 324 321 359 c 0
 317 396 294 405 257 405 c 3
 152 405 121 333 121 233 c 3
 121 129 165 35 265 35 c 3
 332 35 369 88 401 126 c 1
 417 118 l 1
 382 48 341 -8 240 -8 c 3
 117 -8 35 87 35 216 c 3
 35 355 126 455 258 455 c 3
 327 455 409 416 409 354 c 3
EndSplineSet
Fore
SplineSet
417 118 m 1
 382 48 341 -8 237 -8 c 3
 118 -8 35 86 35 215 c 0
 35 355 126 455 258 455 c 3
 392 455 423 343 423 276 c 3
 423 257 398 236 374 236 c 6
 121 236 l 5
 121 132 165 35 265 35 c 3
 332 35 369 88 401 126 c 1
 417 118 l 1
251 405 m 3
 157 405 129 333 123 276 c 1
 331 276 l 2
 345 276 353 279 353 291 c 3
 353 383 310 405 251 405 c 3
EndSplineSet
Validated: 1
EndChar

StartChar: d
Encoding: 100 100 14
Width: 507
VWidth: 838
Flags: HMW
LayerCount: 2
Fore
SplineSet
357 -10 m 1
 357 30 l 1
 347 35 l 1
 328 15 273 -10 210 -10 c 3
 154 -10 113 21 86 55 c 0
 56 92 35 149 35 215 c 3
 35 327 89 401 167 435 c 0
 194 446 224 455 257 455 c 3
 288 455 318 448 347 440 c 1
 347 625 l 1
 287 645 l 1
 287 655 l 1
 367 670 387 680 417 695 c 1
 427 695 l 1
 427 50 l 1
 487 30 l 1
 487 20 l 1
 367 -10 l 1
 357 -10 l 1
125 228 m 3
 125 133 158 35 245 35 c 0
 290 35 329 66 347 95 c 1
 347 332 l 2
 347 379 311 405 255 405 c 3
 151 405 125 331 125 228 c 3
EndSplineSet
Validated: 1
EndChar

StartChar: f
Encoding: 102 102 15
Width: 307
VWidth: 838
Flags: HMW
LayerCount: 2
Fore
SplineSet
382 624 m 3
 382 599 366 583 341 583 c 3
 281 583 321 655 259 655 c 3
 180 655 180 575 180 490 c 2
 180 445 l 1
 300 445 l 1
 300 405 l 1
 180 405 l 1
 180 30 l 1
 240 20 l 1
 240 0 l 1
 40 0 l 1
 40 20 l 1
 100 30 l 1
 100 405 l 1
 20 405 l 1
 35 445 l 1
 100 445 l 1
 100 538 l 2
 100 604 133 641 176 668 c 0
 202 684 236 695 275 695 c 3
 327 695 382 671 382 624 c 3
EndSplineSet
Validated: 1
EndChar

StartChar: g
Encoding: 103 103 16
Width: 482
VWidth: 838
Flags: HMW
LayerCount: 2
Back
SplineSet
237 405 m 3
 166 405 149 350 149 291 c 3
 149 233 166 172 237 172 c 3
 308 172 326 233 326 292 c 3
 326 350 308 405 237 405 c 3
92 -75 m 3
 92 -129 156 -168 240 -168 c 3
 323 -168 374 -129 374 -75 c 3
 374 -21 324 -10 240 -10 c 3
 204 -10 176 -10 154 -10 c 1
 116 -18 92 -44 92 -75 c 3
392 351 m 1
 399 332 403 312 403 291 c 3
 403 199 332 130 238 130 c 3
 220 130 204 133 188 137 c 1
 148 124 131 109 131 95 c 3
 131 69 202 35 253 35 c 3
 402 35 443 16 443 -57 c 3
 443 -137 383 -218 242 -218 c 3
 129 -218 40 -162 40 -89 c 3
 40 -39 65 7 118 30 c 1
 83 46 71 62 71 82 c 3
 71 111 98 143 125 170 c 1
 91 199 72 242 72 291 c 3
 72 384 144 455 236 455 c 3
 275 455 309 442 336 423 c 1025
336 423 m 1
 356 457 390 487 423 487 c 0
 448 487 472 468 472 446 c 0
 472 423 453 403 436 403 c 0
 408.260742188 403 383.250976562 423.907226562 362 400 c 1
 336 423 l 1
369 504 m 5
 299 571 l 5
 307 576 l 5
 343 578 366 581 442 606 c 5
 447 597 l 5
 369 504 l 5
EndSplineSet
Fore
SplineSet
237 405 m 3
 166 405 149 350 149 291 c 3
 149 233 166 172 237 172 c 3
 308 172 326 233 326 292 c 3
 326 350 308 405 237 405 c 3
92 -75 m 3
 92 -129 156 -167 240 -167 c 3
 323 -167 374 -129 374 -75 c 3
 374 -21 324 -8 240 -8 c 3
 204 -8 176 -8 154 -8 c 1
 116 -16 92 -44 92 -75 c 3
392 351 m 1
 399 332 403 312 403 291 c 3
 403 199 332 130 238 130 c 3
 220 130 204 133 188 137 c 1
 148 124 131 109 131 95 c 3
 131 69 202 37 253 37 c 7
 402 37 443 16 443 -57 c 3
 443 -137 383 -218 242 -218 c 3
 129 -218 40 -162 40 -89 c 3
 40 -39 65 4 118 27 c 1
 83 43 71 62 71 82 c 3
 71 111 98 143 125 170 c 1
 91 199 72 242 72 291 c 3
 72 384 144 455 236 455 c 3
 275 455 309 442 336 423 c 1
 369 425 390 431 462 455 c 1
 472 445 l 1
 392 351 l 1
EndSplineSet
Validated: 1
EndChar

StartChar: j
Encoding: 106 106 17
Width: 250
VWidth: 838
Flags: HMW
LayerCount: 2
Fore
SplineSet
125 544 m 3
 95 544 70 570 70 599 c 3
 70 631 93 654 125 654 c 3
 158 654 180 632 180 599 c 3
 180 568 157 544 125 544 c 3
165 0 m 2
 165 -40 146 -167 -27 -167 c 0
 -78 -167 -120 -146 -120 -99 c 0
 -120 -69 -103 -49 -74 -49 c 0
 -18 -49 -47 -118 14 -118 c 3
 71 -118 85 -59 85 0 c 2
 85 385 l 1
 25 405 l 1
 25 415 l 1
 105 430 125 440 155 455 c 1
 165 455 l 1
 165 0 l 2
EndSplineSet
Validated: 1
EndChar

StartChar: a
Encoding: 97 97 18
Width: 485
VWidth: 838
Flags: HMW
LayerCount: 2
Fore
SplineSet
394 -8 m 3
 357 -8 330 5 322 30 c 1
 312 35 l 1
 293 15 243 -8 178 -8 c 3
 98 -8 30 63 30 113 c 3
 30 220 141 256 315 256 c 1
 315 328 l 2
 315 392 264 405 221 405 c 3
 72 405 175 279 81 279 c 3
 58 279 42 300 42 324 c 3
 42 390 114 455 250 455 c 3
 358 455 395 409 395 298 c 10
 395 106 l 2
 395 65 395 35 426 35 c 3
 447 35 457 46 468 60 c 1
 480 48 l 1
 459 15 439 -8 394 -8 c 3
119 121 m 3
 119 79 158 35 215 35 c 3
 258 35 297 65 315 94 c 1
 315 214 l 1
 179 214 119 200 119 121 c 3
EndSplineSet
Validated: 1
EndChar

StartChar: A
Encoding: 65 65 19
Width: 651
VWidth: 838
Flags: HMW
LayerCount: 2
Fore
SplineSet
406 238 m 1
 224 238 l 1
 179 111 l 2
 173 93 170 80 170 71 c 3
 170 41 203 25 236 20 c 1
 236 0 l 1
 0 0 l 1
 0 20 l 1
 52 27 87 36 106 74 c 0
 111 84 117 99 122 113 c 2
 316 657 l 1
 344 663 l 1
 565 70 l 2
 579 31 596 23 651 20 c 1
 651 0 l 1
 385 0 l 1
 385 20 l 1
 415 21 437 22 457 28 c 0
 467 31 471 36 471 47 c 0
 471 63 468 68 462 84 c 2
 406 238 l 1
313 486 m 1
 243 292 l 1
 387 292 l 1
 316 486 l 1
 313 486 l 1
EndSplineSet
EndChar

StartChar: B
Encoding: 66 66 20
Width: 550
VWidth: 838
Flags: HMW
LayerCount: 2
Fore
SplineSet
491 489 m 3
 491 404 429 361 353 345 c 1
 353 342 l 1
 428 334 483 295 508 235 c 0
 515 215 520 194 520 171 c 3
 520 81 466 28 393 10 c 0
 365 4 330 0 283 0 c 2
 20 0 l 1
 20 20 l 1
 91 35 l 1
 91 610 l 1
 20 626 l 1
 20 645 l 1
 268 645 l 2
 372 645 440 625 475 558 c 0
 486 537 491 514 491 489 c 3
180 373 m 1
 232 373 l 2
 341 373 397 378 397 491 c 3
 397 573 336 596 252 596 c 2
 180 596 l 1
 180 373 l 1
423 179 m 3
 423 288 363 315 251 315 c 2
 180 315 l 1
 180 109 l 2
 180 65 204 58 254 58 c 3
 365 58 423 71 423 179 c 3
EndSplineSet
Validated: 1
EndChar

StartChar: C
Encoding: 67 67 21
Width: 622
VWidth: 838
Flags: HMW
LayerCount: 2
Fore
SplineSet
35 318 m 7
 35 511 150 654 342 654 c 7
 414 654 476 632 523 603 c 5
 526 603 l 5
 567 645 l 5
 582 645 l 5
 582 453 l 5
 557 453 l 5
 526 546 474 605 356 605 c 7
 200 605 141 491 141 325 c 7
 141 159 201 45 356 45 c 7
 479 45 539 113 559 219 c 5
 582 219 l 5
 582 0 l 5
 562 0 l 5
 523 38 l 5
 470 0 421 -8 339 -8 c 7
 149 -8 35 127 35 318 c 7
EndSplineSet
Validated: 1
EndChar

StartChar: D
Encoding: 68 68 22
Width: 645
VWidth: 838
Flags: HMW
LayerCount: 2
Fore
SplineSet
20 0 m 1
 20 20 l 1
 91 35 l 1
 91 610 l 1
 20 626 l 1
 20 645 l 1
 229 645 l 2
 467 645 610 553 610 321 c 3
 610 125 501 0 301 0 c 2
 20 0 l 1
180 109 m 2
 180 62 213 58 267 58 c 0
 442 58 506 158 506 331 c 3
 506 512 430 596 246 596 c 2
 180 596 l 1
 180 109 l 2
EndSplineSet
Validated: 1
EndChar

StartChar: E
Encoding: 69 69 23
Width: 544
VWidth: 838
Flags: HMW
LayerCount: 2
Fore
SplineSet
481 461 m 5
 467 513 446 552 420 596 c 5
 180 596 l 5
 180 373 l 5
 330 373 l 5
 344 404 355 421 361 458 c 5
 381 458 l 5
 381 223 l 5
 361 223 l 5
 356 257 346 282 330 315 c 5
 180 315 l 5
 180 59 l 5
 416 59 l 5
 448 111 465 136 486 196 c 5
 514 196 l 5
 483 0 l 5
 20 0 l 5
 20 20 l 5
 91 35 l 5
 91 610 l 5
 20 626 l 5
 20 645 l 5
 486 645 l 5
 501 461 l 5
 481 461 l 5
EndSplineSet
Validated: 1
EndChar

StartChar: H
Encoding: 72 72 24
Width: 683
VWidth: 838
Flags: HMW
LayerCount: 2
Fore
SplineSet
501 315 m 5
 184 315 l 5
 184 35 l 5
 259 20 l 5
 259 0 l 5
 20 0 l 5
 20 20 l 5
 95 35 l 5
 95 610 l 5
 20 626 l 5
 20 645 l 5
 259 645 l 5
 259 626 l 5
 184 610 l 5
 184 373 l 5
 501 373 l 5
 501 610 l 5
 425 626 l 5
 425 645 l 5
 663 645 l 5
 663 624 l 5
 589 610 l 5
 589 35 l 5
 663 18 l 5
 663 0 l 5
 425 0 l 5
 425 20 l 5
 501 35 l 5
 501 315 l 5
EndSplineSet
Validated: 1
EndChar

StartChar: I
Encoding: 73 73 25
Width: 279
VWidth: 838
Flags: HMW
LayerCount: 2
Fore
SplineSet
95 610 m 1
 20 626 l 1
 20 645 l 1
 259 645 l 1
 259 626 l 1
 184 610 l 1
 184 35 l 1
 259 20 l 1
 259 0 l 1
 20 0 l 1
 20 20 l 1
 95 35 l 1
 95 610 l 1
EndSplineSet
Validated: 1
EndChar

StartChar: J
Encoding: 74 74 26
Width: 418
VWidth: 838
Flags: HMW
LayerCount: 2
Fore
SplineSet
225 610 m 1
 150 626 l 1
 150 645 l 1
 388 645 l 1
 388 626 l 1
 313 610 l 1
 313 213 l 6
 313 131 268 0 115 0 c 3
 44 0 10 29 10 76 c 3
 10 106 31 127 60 127 c 0
 116 127 94 55 155 55 c 3
 212 55 225 121 225 213 c 2
 225 610 l 1
EndSplineSet
Validated: 1
EndChar

StartChar: O
Encoding: 79 79 27
Width: 679
VWidth: 838
Flags: HMW
LayerCount: 2
Fore
SplineSet
340 654 m 3
 526 654 644 510 644 323 c 3
 644 136 526 -8 340 -8 c 3
 154 -8 35 136 35 323 c 3
 35 510 154 654 340 654 c 3
141 324 m 3
 141 171 191 44 340 44 c 3
 489 44 538 173 538 326 c 3
 538 479 489 596 340 596 c 3
 190 596 141 477 141 324 c 3
EndSplineSet
Validated: 1
EndChar

StartChar: r
Encoding: 114 114 28
Width: 350
VWidth: 838
Flags: HMW
LayerCount: 2
Back
SplineSet
329 401 m 4
 329 374 307 353 280 353 c 4
 267 353 256 358 248 369 c 4
 240 378 236 385 222 385 c 4
 210 385 199 378 189 364 c 4
 179 351 173 342 170 338 c 4
 167 334 165 329 164 324 c 5
 164 29 l 5
 248 17 l 5
 248 -0 l 5
 21 -0 l 5
 21 17 l 5
 85 29 l 5
 85 378 l 5
 23 402 l 5
 23 412 l 5
 153 454 l 5
 161 454 l 5
 161 361 l 5
 181 391 200 414 220 430 c 4
 240 446 258 454 276 454 c 4
 305 454 329 430 329 401 c 4
EndSplineSet
Fore
SplineSet
85 385 m 1
 25 405 l 1
 25 415 l 1
 105 430 125 440 155 455 c 1
 165 455 l 1
 165 405 l 1
 165 405 224 455 275 455 c 3
 304 455 330 434 330 405 c 3
 330 378 308 355 280 355 c 3
 252 355 246 385 220 385 c 3
 195 385 165 343 165 324 c 2
 165 30 l 1
 225 20 l 1
 225 0 l 1
 25 0 l 1
 25 20 l 1
 85 30 l 1
 85 385 l 1
EndSplineSet
Validated: 1
EndChar

StartChar: k
Encoding: 107 107 29
Width: 521
VWidth: 838
Flags: HMW
LayerCount: 2
Fore
SplineSet
160 233 m 1
 300 392 l 2
 304 397 306 401 306 405 c 3
 306 418 276 423 246 425 c 1
 246 445 l 1
 444 445 l 1
 444 425 l 1
 397 416 362 394 337 365 c 2
 243 254 l 1
 446 30 l 1
 506 20 l 1
 506 0 l 1
 366 0 l 1
 192 196 l 1
 160 157 l 1
 160 30 l 1
 220 20 l 1
 220 0 l 1
 20 0 l 1
 20 20 l 1
 80 30 l 1
 80 625 l 1
 20 645 l 1
 20 655 l 1
 100 670 120 680 150 695 c 1
 160 695 l 1
 160 233 l 1
EndSplineSet
Validated: 1
EndChar

StartChar: w
Encoding: 119 119 30
Width: 722
VWidth: 838
Flags: HMW
LayerCount: 2
Fore
SplineSet
587 401 m 0
 587 423 566 421 537 425 c 1
 537 445 l 1
 707 445 l 1
 707 425 l 1
 656 417 637 407 621 363 c 2
 490 -10 l 1
 453 -10 l 1
 352 305 l 1
 241 -10 l 1
 205 -10 l 1
 67 392 l 2
 57 421 48 422 10 425 c 1
 10 445 l 1
 210 445 l 1
 210 425 l 1
 173 421 157 425 157 405 c 3
 157 399 158 393 161 382 c 2
 240 119 l 1
 244 119 l 1
 331 371 l 1
 324 392 l 2
 316 418 303 422 272 425 c 1
 272 445 l 1
 462 445 l 1
 462 425 l 1
 424 421 407 425 407 404 c 3
 407 398 409 391 411 382 c 2
 489 120 l 1
 492 120 l 1
 583 381 l 2
 585 387 587 395 587 401 c 0
EndSplineSet
Validated: 1
EndChar

StartChar: F
Encoding: 70 70 31
Width: 516
VWidth: 838
Flags: HMW
LayerCount: 2
Back
SplineSet
481 461 m 5
 467 513 446 552 420 596 c 5
 180 596 l 5
 180 373 l 5
 330 373 l 5
 344 404 355 421 361 458 c 5
 381 458 l 5
 381 223 l 5
 361 223 l 5
 356 257 346 282 330 315 c 5
 180 315 l 5
 180 59 l 5
 416 59 l 5
 448 111 466 136 487 196 c 5
 514 196 l 5
 483 0 l 5
 20 0 l 5
 20 19 l 5
 92 35 l 5
 92 610 l 5
 20 626 l 5
 20 646 l 5
 487 646 l 5
 501 461 l 5
 481 461 l 5
EndSplineSet
Fore
SplineSet
481 461 m 1
 467 513 446 552 420 596 c 1
 180 596 l 1
 180 373 l 1
 330 373 l 1
 344 404 355 421 361 458 c 1
 381 458 l 1
 381 223 l 1
 361 223 l 1
 356 257 346 282 330 315 c 1
 180 315 l 1
 180 35 l 1
 275 20 l 1
 275 0 l 1
 20 0 l 1
 20 20 l 1
 91 35 l 1
 91 610 l 1
 20 626 l 1
 20 645 l 1
 486 645 l 1
 501 461 l 1
 481 461 l 1
EndSplineSet
Validated: 1
EndChar

StartChar: G
Encoding: 71 71 32
Width: 663
VWidth: 838
Flags: HMW
LayerCount: 2
Back
SplineSet
36 319 m 7
 36 513 151 654 343 654 c 7
 415 654 477 632 523 603 c 5
 527 603 l 5
 568 646 l 5
 583 646 l 5
 583 453 l 5
 558 453 l 5
 527 546 475 604 357 604 c 7
 201 604 142 490 142 324 c 7
 142 158 202 45 357 45 c 7
 480 45 540 114 560 220 c 5
 583 220 l 5
 583 0 l 5
 563 0 l 5
 524 55 l 5
 471 16 422 -8 340 -8 c 7
 150 -8 36 128 36 319 c 7
EndSplineSet
Fore
SplineSet
364 606 m 0
 202 606 143 490 143 315 c 0
 143 125 215 45 356 45 c 0
 427 45 482 70 482 142 c 2
 481 288 l 1
 405 304 l 1
 405 324 l 1
 643 324 l 1
 643 304 l 1
 568 288 l 1
 568 68 l 1
 530 32 469 9 405 -2 c 0
 383 -6 362 -8 340 -8 c 0
 244 -8 170 30 121 82 c 0
 70 136 35 215 35 315 c 0
 35 508 158 654 350 654 c 0
 417 654 475 635 511 603 c 1
 514 603 l 1
 559 645 l 1
 578 645 l 1
 578 453 l 1
 558 453 l 1
 521 539 483 606 364 606 c 0
EndSplineSet
Validated: 1
EndChar

StartChar: L
Encoding: 76 76 33
Width: 534
VWidth: 838
Flags: HMW
LayerCount: 2
Fore
SplineSet
180 610 m 1
 180 59 l 1
 422 59 l 1
 454 112 471 141 492 201 c 1
 514 201 l 1
 483 0 l 1
 20 0 l 1
 20 20 l 1
 91 35 l 1
 91 610 l 1
 20 626 l 1
 20 645 l 1
 260 645 l 1
 260 626 l 1
 180 610 l 1
EndSplineSet
Validated: 1
EndChar

StartChar: p
Encoding: 112 112 34
Width: 517
VWidth: 838
Flags: HMW
LayerCount: 2
Fore
SplineSet
165 405 m 5
 165 405 206 455 302 455 c 7
 422 455 482 350 482 228 c 7
 482 87 385 -10 245 -10 c 7
 214 -10 190 -4 165 4 c 5
 165 -180 l 5
 225 -190 l 5
 225 -210 l 5
 25 -210 l 5
 25 -190 l 5
 85 -180 l 5
 85 385 l 5
 25 405 l 5
 25 415 l 5
 105 430 125 440 155 455 c 5
 165 455 l 5
 165 405 l 5
165 119 m 6
 165 71 202 35 249 35 c 7
 337 35 392 124 392 215 c 7
 392 314 351 405 259 405 c 7
 222 405 178 380 165 355 c 5
 165 119 l 6
EndSplineSet
Validated: 1
EndChar

StartChar: q
Encoding: 113 113 35
Width: 508
VWidth: 838
Flags: HMW
LayerCount: 2
Fore
SplineSet
348 -180 m 1
 348 20 l 1
 348 20 317 -10 221 -10 c 3
 103 -10 35 85 35 204 c 3
 35 351 114 455 257 455 c 3
 299 455 339 441 373 415 c 1
 418 445 l 5
 428 445 l 1
 428 -180 l 1
 488 -190 l 1
 488 -210 l 1
 288 -210 l 1
 288 -190 l 1
 348 -180 l 1
348 317 m 2
 348 377 316 405 257 405 c 3
 166 405 125 330 125 227 c 3
 125 126 163 35 256 35 c 3
 298 35 328 56 348 81 c 1
 348 317 l 2
EndSplineSet
Validated: 1
EndChar

StartChar: m
Encoding: 109 109 36
Width: 750
VWidth: 838
Flags: HMW
LayerCount: 2
Fore
SplineSet
165 405 m 1
 203 442 254 455 320 455 c 3
 347 455 385 450 410 405 c 1
 448 442 507 455 574 455 c 3
 669 455 675 405 675 283 c 2
 675 30 l 1
 735 20 l 1
 735 0 l 1
 535 0 l 1
 535 20 l 1
 595 30 l 1
 595 275 l 2
 595 352 591 405 527 405 c 3
 478 405 445 384 420 355 c 1
 420 30 l 1
 480 20 l 1
 480 0 l 1
 280 0 l 1
 280 20 l 1
 340 30 l 1
 340 275 l 2
 340 352 337 405 273 405 c 3
 225 405 190 384 165 355 c 1
 165 30 l 1
 225 20 l 1
 225 0 l 1
 25 0 l 1
 25 20 l 1
 85 30 l 1
 85 385 l 1
 25 405 l 1
 25 415 l 5
 105 430 125 440 155 455 c 1
 165 455 l 1
 165 405 l 1
EndSplineSet
Validated: 1
EndChar

StartChar: n
Encoding: 110 110 37
Width: 494
VWidth: 838
Flags: HMW
LayerCount: 2
Fore
SplineSet
165 455 m 1
 165 405 l 1
 203 442 246 455 312 455 c 3
 418 455 419 405 419 293 c 2
 419 30 l 1
 479 20 l 1
 479 0 l 1
 280 0 l 1
 280 20 l 1
 340 30 l 1
 340 275 l 2
 340 349 335 405 264 405 c 3
 216 405 190 384 165 355 c 1
 165 30 l 1
 225 20 l 1
 225 0 l 1
 25 0 l 1
 25 20 l 1
 85 30 l 1
 85 385 l 1
 25 405 l 1
 25 415 l 5
 105 430 125 440 155 455 c 1
 165 455 l 1
EndSplineSet
Validated: 1
EndChar

StartChar: K
Encoding: 75 75 38
Width: 645
VWidth: 838
Flags: HMW
LayerCount: 2
Back
SplineSet
501 315 m 5
 184 315 l 5
 184 35 l 5
 259 19 l 5
 259 0 l 5
 20 0 l 5
 20 19 l 5
 96 35 l 5
 96 610 l 5
 20 626 l 5
 20 646 l 5
 259 646 l 5
 259 626 l 5
 184 610 l 5
 184 373 l 5
 501 373 l 5
 501 610 l 5
 425 626 l 5
 425 646 l 5
 663 646 l 5
 663 625 l 5
 589 610 l 5
 589 35 l 5
 663 18 l 5
 663 0 l 5
 425 0 l 5
 425 19 l 5
 501 35 l 5
 501 315 l 5
EndSplineSet
Fore
SplineSet
364 626 m 1
 364 645 l 1
 585 645 l 1
 585 626 l 1
 528 616 493 610 463 575 c 2
 297 385 l 1
 566 35 l 1
 645 20 l 5
 645 0 l 5
 477 0 l 1
 238 317 l 1
 184 255 l 1
 184 35 l 1
 259 20 l 1
 259 0 l 1
 20 0 l 1
 20 20 l 1
 95 35 l 1
 95 610 l 1
 20 626 l 1
 20 645 l 1
 259 645 l 1
 259 626 l 1
 184 610 l 1
 184 344 l 1
 399 585 l 2
 407 593 418 605 418 613 c 3
 418 621 409 626 380 626 c 3
 372 626 364 626 364 626 c 1
EndSplineSet
Validated: 1
EndChar

StartChar: M
Encoding: 77 77 39
Width: 813
VWidth: 838
Flags: HMW
LayerCount: 2
Fore
SplineSet
405 188 m 1
 597 645 l 1
 793 645 l 1
 793 626 l 1
 719 610 l 1
 719 35 l 1
 793 20 l 1
 793 0 l 1
 555 0 l 1
 555 20 l 1
 631 35 l 1
 631 550 l 1
 628 550 l 1
 389 -8 l 1
 366 -8 l 1
 133 553 l 1
 130 553 l 1
 130 35 l 1
 204 20 l 1
 204 0 l 1
 20 0 l 1
 20 20 l 1
 75 31 l 1
 75 614 l 1
 20 626 l 1
 20 645 l 1
 197 645 l 1
 388 188 l 1
 405 188 l 1
EndSplineSet
Validated: 1
EndChar

StartChar: N
Encoding: 78 78 40
Width: 664
VWidth: 838
Flags: HMW
LayerCount: 2
Fore
SplineSet
579 -17 m 5
 543 -17 l 1
 130 559 l 1
 130 35 l 1
 204 20 l 1
 204 0 l 1
 20 0 l 1
 20 20 l 1
 75 31 l 1
 75 614 l 1
 20 626 l 1
 20 645 l 1
 190 645 l 1
 514 201 l 1
 514 614 l 1
 460 626 l 1
 460 645 l 1
 644 645 l 1
 644 626 l 1
 579 610 l 5
 579 -17 l 5
EndSplineSet
Validated: 1
EndChar

StartChar: T
Encoding: 84 84 41
Width: 637
VWidth: 838
Flags: HMW
LayerCount: 2
Fore
SplineSet
184 20 m 1
 276 35 l 1
 276 588 l 1
 99 588 l 1
 66 545 50 515 31 461 c 1
 10 461 l 1
 41 645 l 1
 596 645 l 1
 627 461 l 1
 608 461 l 1
 589 515 572 545 539 588 c 1
 364 588 l 1
 364 35 l 1
 456 20 l 1
 456 0 l 1
 184 0 l 1
 184 20 l 1
EndSplineSet
Validated: 1
EndChar

StartChar: U
Encoding: 85 85 42
Width: 633
VWidth: 838
Flags: HMW
LayerCount: 2
Fore
SplineSet
184 190 m 2
 184 88 239 29 339 29 c 3
 478 29 494 107 494 251 c 2
 493 613 l 1
 429 626 l 1
 429 645 l 1
 613 645 l 1
 613 626 l 1
 548 613 l 1
 548 216 l 2
 548 64 472 -8 322 -8 c 3
 212 -8 127 34 104 121 c 0
 99 141 95 169 95 203 c 2
 95 610 l 1
 20 626 l 1
 20 645 l 1
 259 645 l 1
 259 626 l 1
 184 610 l 1
 184 190 l 2
EndSplineSet
Validated: 1
EndChar

StartChar: V
Encoding: 86 86 43
Width: 653
VWidth: 838
Flags: HMW
LayerCount: 2
Fore
SplineSet
315 -8 m 1
 96 575 l 2
 87 601 76 617 47 622 c 0
 38 624 24 625 10 626 c 1
 10 645 l 1
 283 645 l 1
 283 626 l 1
 254 624 231 625 210 619 c 0
 199 617 195 612 195 601 c 0
 195 589 202 572 206 561 c 2
 333 197 l 1
 337 197 l 1
 469 579 l 2
 471 585 473 591 473 597 c 3
 473 613 461 626 407 626 c 1
 407 645 l 1
 643 645 l 1
 643 626 l 1
 591 619 556 608 536 571 c 0
 531 561 526 549 521 533 c 2
 329 -8 l 1
 315 -8 l 1
EndSplineSet
Validated: 1
EndChar

StartChar: W
Encoding: 87 87 44
Width: 962
VWidth: 838
Flags: HMW
LayerCount: 2
Fore
SplineSet
315 -8 m 1
 96 575 l 2
 87 601 76 617 47 622 c 0
 38 624 24 625 10 626 c 1
 10 645 l 1
 283 645 l 1
 283 626 l 1
 253 624 230 623 209 617 c 0
 199 615 195 611 195 601 c 0
 195 585 200 579 206 561 c 2
 333 194 l 1
 337 194 l 1
 444 508 l 1
 420 575 l 2
 411 601 399 617 370 622 c 0
 361 624 348 625 334 626 c 1
 334 645 l 1
 607 645 l 1
 607 626 l 1
 575 624 520 627 520 599 c 3
 520 592 523 578 529 561 c 2
 655 200 l 1
 660 200 l 1
 777 581 l 2
 779 586 780 590 780 593 c 3
 780 618 747 622 716 626 c 1
 716 645 l 1
 952 645 l 1
 952 626 l 1
 901 619 863 610 845 572 c 0
 840 562 835 549 830 533 c 2
 657 -8 l 1
 639 -8 l 1
 479 416 l 1
 334 -8 l 1
 315 -8 l 1
EndSplineSet
Validated: 1
EndChar

StartChar: Y
Encoding: 89 89 45
Width: 635
VWidth: 838
Flags: HMW
LayerCount: 2
Fore
SplineSet
193 20 m 5
 269 35 l 5
 269 274 l 5
 98 575 l 6
 85 599 76 615 47 621 c 4
 38 623 24 625 10 626 c 5
 10 645 l 5
 285 645 l 5
 285 626 l 5
 256 624 233 622 213 615 c 4
 203 611 197 606 197 595 c 4
 197 586 202 574 209 561 c 6
 336 334 l 5
 339 334 l 5
 456 554 l 5
 462 565 465 576 465 585 c 4
 465 608 445 622 390 626 c 5
 390 645 l 5
 625 645 l 5
 625 626 l 5
 549 615 533 589 504 533 c 6
 357 259 l 5
 357 35 l 5
 431 20 l 5
 431 0 l 5
 193 0 l 5
 193 20 l 5
EndSplineSet
Validated: 1
EndChar

StartChar: P
Encoding: 80 80 46
Width: 535
VWidth: 838
Flags: HMW
LayerCount: 2
Fore
SplineSet
20 645 m 1
 282 645 l 2
 384 645 457 605 489 535 c 0
 500 510 505 485 505 454 c 3
 505 359 444 308 366 288 c 0
 337 281 304 277 268 277 c 2
 180 277 l 1
 180 35 l 1
 275 20 l 1
 275 0 l 1
 20 0 l 1
 20 20 l 1
 91 35 l 1
 91 610 l 1
 20 626 l 1
 20 645 l 1
180 333 m 1
 242 333 l 2
 352 333 409 377 409 462 c 3
 409 564 360 596 257 596 c 2
 180 596 l 1
 180 333 l 1
EndSplineSet
Validated: 1
EndChar

StartChar: R
Encoding: 82 82 47
Width: 585
VWidth: 838
Flags: HMW
LayerCount: 2
Fore
SplineSet
497 462 m 7
 497 369 446 308 366 288 c 5
 474 35 l 5
 570 20 l 5
 570 0 l 5
 388 0 l 5
 271 277 l 5
 180 277 l 5
 180 35 l 5
 275 20 l 5
 275 0 l 5
 20 0 l 5
 20 20 l 5
 91 35 l 5
 91 610 l 5
 20 626 l 5
 20 645 l 5
 273 645 l 6
 373 645 447 609 480 541 c 4
 491 518 497 491 497 462 c 7
234 333 m 6
 338 333 400 370 400 470 c 7
 400 569 348 596 248 596 c 6
 180 596 l 5
 180 333 l 5
 234 333 l 6
EndSplineSet
Validated: 1
EndChar

StartChar: S
Encoding: 83 83 48
Width: 459
VWidth: 838
Flags: HMW
LayerCount: 2
Fore
SplineSet
227 51 m 4
 298 51 353 86 353 155 c 7
 353 196 331 206 305 228 c 4
 276 253 234 273 197 293 c 4
 140 323 86 353 57 412 c 4
 48 431 43 452 43 477 c 7
 43 562 95 616 157 641 c 4
 180 650 204 654 231 654 c 7
 289 654 325 633 358 602 c 5
 385 645 l 5
 401 645 l 5
 408 461 l 5
 387 461 l 5
 374 515 355 539 330 564 c 4
 305 589 273 602 235 602 c 7
 173 602 132 568 132 507 c 7
 132 463 154 450 179 428 c 4
 208 403 246 386 281 366 c 4
 337 336 389 305 417 247 c 4
 425 228 429 207 429 182 c 7
 429 123 404 77 372 47 c 4
 339 17 290 -7 230 -7 c 4
 173 -7 136 9 96 34 c 5
 62 0 l 5
 46 0 l 5
 30 215 l 5
 52 219 l 5
 69 151 90 125 118 95 c 4
 146 65 180 51 227 51 c 4
EndSplineSet
Validated: 1
EndChar

StartChar: asciitilde
Encoding: 126 126 49
Width: 491
VWidth: 838
Flags: HMW
LayerCount: 2
Fore
SplineSet
147 232 m 3
 110 232 98 215 90 187 c 1
 65 187 l 1
 65 234 86 269 116 289 c 0
 128 296 144 301 164 301 c 3
 233 301 274 257 343 257 c 3
 380 257 392 273 400 301 c 1
 426 301 l 1
 426 253 405 218 374 198 c 0
 362 191 347 187 327 187 c 3
 294 187 265 201 238 210 c 0
 212 219 180 232 147 232 c 3
EndSplineSet
Validated: 1
EndChar

StartChar: bar
Encoding: 124 124 50
Width: 219
VWidth: 838
Flags: HMW
LayerCount: 2
Fore
SplineSet
80 -85 m 5
 80 695 l 1
 139 695 l 1
 139 -85 l 5
 80 -85 l 5
EndSplineSet
EndChar

StartChar: braceleft
Encoding: 123 123 51
Width: 285
VWidth: 838
Flags: HMW
LayerCount: 2
Fore
SplineSet
161 -14 m 7
 161 -62 172 -90 216 -90 c 7
 227 -90 240 -88 251 -85 c 5
 255 -110 l 5
 235 -117 221 -121 196 -121 c 7
 122 -121 89 -92 89 -18 c 7
 89 58 110 125 110 203 c 7
 110 273 96 310 30 310 c 5
 30 328 l 5
 92 328 110 364 110 429 c 7
 110 499.025390625 89 560.549804688 89 629 c 7
 89 699 131 736 202 736 c 7
 224 736 239 730 255 724 c 5
 251 703 l 5
 235 705 230 707 216 707 c 7
 176 707 161 669 161 627 c 7
 161 560.94140625 182 497.490234375 182 430 c 7
 182 372 162 335 122 319 c 5
 122 316 l 5
 164 299 182 271 182 211 c 7
 182 135.586914062 161 60.7841796875 161 -14 c 7
EndSplineSet
EndChar

StartChar: braceright
Encoding: 125 125 52
Width: 285
VWidth: 838
Flags: HMW
LayerCount: 2
Fore
SplineSet
197 -18 m 3
 197 -92 164 -121 90 -121 c 3
 65 -121 50 -117 30 -110 c 1
 35 -85 l 1
 46 -88 57 -90 69 -90 c 3
 113 -90 125 -62 125 -14 c 3
 125 59.259765625 104 134.95703125 104 211 c 3
 104 271 122 299 164 316 c 1
 164 319 l 1
 124 335 104 372 104 430 c 3
 104 498.438476562 125 560.592773438 125 627 c 3
 125 669 109 707 69 707 c 3
 55 707 51 705 35 703 c 1
 30 724 l 1
 46 730 62 736 84 736 c 3
 155 736 197 699 197 629 c 3
 197 561 176 498 176 429 c 3
 176 364 193 328 255 328 c 1
 255 310 l 1
 189 310 176 273 176 203 c 3
 176 125.142578125 197 57.0712890625 197 -18 c 3
EndSplineSet
EndChar

StartChar: Z
Encoding: 90 90 53
Width: 559
VWidth: 838
Flags: HMW
LayerCount: 2
Back
SplineSet
521 646 m 5
 521 623 l 5
 136 34 l 5
 416 34 l 5
 426 49 l 6
 446 79 462 108 475 136 c 4
 488 164 499 188 507 207 c 5
 529 205 l 5
 485 0 l 5
 25 0 l 5
 25 23 l 5
 409 612 l 5
 143 612 l 5
 132 594 l 6
 116 564 104 537 94 515 c 4
 84 493 76 475 72 462 c 5
 50 463 l 5
 86 646 l 5
 521 646 l 5
EndSplineSet
Fore
SplineSet
521 645 m 1
 521 623 l 1
 152 58 l 1
 432 58 l 1
 441 73 l 2
 463 109 487 156 508 207 c 1
 529 205 l 1
 486 0 l 1
 25 0 l 1
 25 24 l 1
 393 588 l 1
 129 588 l 1
 116 561 l 2
 96 523 85 500 72 462 c 1
 51 463 l 1
 86 645 l 1
 521 645 l 1
EndSplineSet
Validated: 1
EndChar

StartChar: X
Encoding: 88 88 54
Width: 690
VWidth: 838
Flags: HMW
LayerCount: 2
Fore
SplineSet
461 626 m 1
 461 645 l 1
 670 645 l 1
 670 626 l 1
 632 619 602 612 577 592 c 0
 570 586 561 578 554 569 c 2
 395 352 l 1
 590 55 l 2
 608 27 638 22 680 19 c 1
 680 0 l 1
 429 0 l 1
 429 19 l 1
 455 21 473 23 481 25 c 0
 489 27 494 31 494 35 c 0
 494 46 487 54 481 64 c 2
 336 284 l 1
 182 78 l 2
 173 66 167 53 167 44 c 3
 167 37 173 31 184 27 c 0
 195 23 213 19 238 17 c 1
 238 0 l 1
 10 0 l 1
 10 17 l 1
 61 23 70 23 124 95 c 2
 302 335 l 1
 135 590 l 1
 118 618 81 622 39 626 c 1
 39 645 l 1
 293 645 l 1
 293 626 l 1
 268 625 251 622 245 620 c 0
 239 618 235 614 235 610 c 0
 235 598 239 591 245 581 c 2
 363 401 l 1
 497 585 l 2
 503 594 508 602 508 607 c 3
 508 619 490 623 461 626 c 1
EndSplineSet
Validated: 1
EndChar

StartChar: equal
Encoding: 61 61 55
Width: 474
VWidth: 838
Flags: HMW
LayerCount: 2
Fore
SplineSet
65 336 m 5
 65 373 l 5
 409 373 l 5
 409 336 l 5
 65 336 l 5
65 202 m 5
 65 238 l 5
 409 238 l 5
 409 202 l 5
 65 202 l 5
EndSplineSet
Validated: 1
EndChar

StartChar: less
Encoding: 60 60 56
Width: 434
VWidth: 838
Flags: HMW
LayerCount: 2
Fore
SplineSet
33 259 m 1
 33 303 l 1
 376 466 l 1
 376 415 l 1
 94 286 l 1
 94 282 l 1
 376 152 l 1
 376 97 l 1
 33 259 l 1
EndSplineSet
Validated: 1
EndChar

StartChar: greater
Encoding: 62 62 57
Width: 434
VWidth: 838
Flags: HMW
LayerCount: 2
Fore
SplineSet
59 101 m 5
 59 152 l 5
 341 282 l 5
 341 286 l 5
 59 415 l 5
 59 470 l 5
 401 307 l 5
 401 264 l 5
 59 101 l 5
EndSplineSet
Validated: 1
EndChar

StartChar: at
Encoding: 64 64 58
Width: 731
VWidth: 838
Flags: HMW
LayerCount: 2
Fore
SplineSet
373 -87 m 0
 437 -87 483 -77 521 -54 c 1
 530 -78 l 1
 474 -106 414 -120 351 -120 c 0
 211 -120 119 -60 74 37 c 0
 57 74 50 119 50 171 c 0
 50 383 193 536 404 536 c 0
 535 536 624 470 661 376 c 0
 673 344 681 311 681 275 c 0
 681 204 656 143 624 101 c 0
 595 63 550 26 488 26 c 0
 439 26 401 51 401 95 c 0
 401 105 400 110 405 115 c 1
 402 116 l 1
 381 87 359 66 337 55 c 0
 315 44 294 37 273 37 c 0
 215 37 187 78 187 136 c 0
 187 202 220 265 253 304 c 0
 285 341 335 386 397 386 c 0
 430 386 450 372 462 352 c 1
 466 352 l 1
 475 386 l 1
 542 386 l 1
 474 143 l 2
 470 132 466 114 466 100 c 0
 466 75 478 68 501 68 c 0
 544 68 577 97 597 126 c 0
 622 161 640 213 640 273 c 0
 640 390 575 459 486 486 c 0
 457 495 427 499 396 499 c 0
 296 499 224 454 176 398 c 0
 129 343 96 265 96 170 c 0
 96 100 115 40 150 -2 c 0
 195 -57 269 -87 373 -87 c 0
260 139 m 0
 260 106 267 83 296 83 c 0
 314 83 330 89 349 105 c 0
 382 133 408 178 426 228 c 0
 434 252 438 275 438 300 c 0
 438 329 430 349 401 349 c 0
 385 349 368 343 351 331 c 0
 316 305 289 263 273 215 c 0
 265 190 260 165 260 139 c 0
EndSplineSet
Validated: 1
EndChar

StartChar: colon
Encoding: 58 58 59
Width: 237
VWidth: 838
Flags: HMW
LayerCount: 2
Fore
SplineSet
118 279 m 3
 85 279 61 303 61 336 c 3
 61 369 84 395 118 395 c 3
 152 395 177 370 177 336 c 3
 177 303 151 279 118 279 c 3
118 -8 m 3
 85 -8 61 16 61 49 c 3
 61 82 84 108 118 108 c 3
 152 108 177 83 177 49 c 3
 177 16 151 -8 118 -8 c 3
EndSplineSet
Validated: 1
EndChar

StartChar: semicolon
Encoding: 59 59 60
Width: 220
VWidth: 838
Flags: HMW
LayerCount: 2
Fore
SplineSet
110 280 m 3
 80 280 55 306 55 335 c 3
 55 367 78 390 110 390 c 3
 143 390 165 368 165 335 c 3
 165 304 142 280 110 280 c 3
110 106 m 7
 150 106 165 68 165 25 c 7
 165 -45 131 -93 84 -126 c 5
 67 -102 l 5
 83 -91 96 -77 105 -64 c 4
 114 -51 119 -39 119 -30 c 7
 119 -11 99 -3 87 4 c 4
 71 13 55 25 55 51 c 7
 55 83 78 106 110 106 c 7
EndSplineSet
EndChar

StartChar: Q
Encoding: 81 81 61
Width: 695
VWidth: 838
Flags: HMW
LayerCount: 2
Fore
SplineSet
140 324 m 7
 140 171 190 44 339 44 c 7
 488 44 537 173 537 326 c 7
 537 479 488 596 339 596 c 7
 189 596 140 477 140 324 c 7
339 654 m 7
 525 654 643 510 643 323 c 7
 643 220 607 129 543 69 c 5
 549 53 583 19 665 -21 c 5
 637 -70 l 5
 476 -46 472 -8 339 -8 c 7
 153 -8 35 136 35 323 c 7
 35 510 153 654 339 654 c 7
EndSplineSet
Validated: 1
EndChar

StartChar: plus
Encoding: 43 43 62
Width: 414
VWidth: 838
Flags: HMW
LayerCount: 2
Fore
SplineSet
186 253 m 5
 35 253 l 5
 35 294 l 5
 186 294 l 5
 186 445 l 5
 230 445 l 5
 230 294 l 5
 379 294 l 5
 379 253 l 5
 230 253 l 5
 230 102 l 5
 186 102 l 5
 186 253 l 5
EndSplineSet
EndChar

StartChar: comma
Encoding: 44 44 63
Width: 180
VWidth: 838
Flags: HMW
LayerCount: 2
Fore
SplineSet
75 106 m 3
 115 106 130 68 130 25 c 3
 130 -45 96 -93 49 -126 c 1
 32 -102 l 1
 48 -91 61 -77 70 -64 c 0
 79 -51 84 -39 84 -30 c 3
 84 -11 64 -3 52 4 c 0
 36 13 20 25 20 51 c 3
 20 83 43 106 75 106 c 3
EndSplineSet
EndChar

StartChar: quotesingle
Encoding: 39 39 64
Width: 139
VWidth: 838
Flags: HMW
LayerCount: 2
Fore
SplineSet
69 696 m 3
 98 696 114 677 114 649 c 3
 114 619 105 588 99 558 c 0
 92 518 84 472 83 424 c 1
 57 424 l 1
 55 493 40 552 29 608 c 0
 26 624 25 635 25 645 c 3
 25 675 40 696 69 696 c 3
EndSplineSet
Validated: 1
EndChar

StartChar: quotedbl
Encoding: 34 34 65
Width: 267
VWidth: 838
Flags: HMW
LayerCount: 2
Fore
SplineSet
69 696 m 3
 98 696 114 677 114 649 c 3
 114 619 105 588 99 558 c 0
 92 518 84 472 83 424 c 1
 57 424 l 1
 55 493 40 552 29 608 c 0
 26 624 25 635 25 645 c 3
 25 675 40 696 69 696 c 3
197 696 m 3
 226 696 242 677 242 649 c 3
 242 619 232 587 226 557 c 0
 219 517 211 472 210 424 c 1
 185 424 l 1
 183 493 168 552 157 608 c 0
 154 624 153 635 153 645 c 3
 153 675 168 696 197 696 c 3
EndSplineSet
Validated: 1
EndChar

StartChar: numbersign
Encoding: 35 35 66
Width: 568
VWidth: 838
Flags: HMW
LayerCount: 2
Fore
SplineSet
436 583 m 1
 413 440 l 1
 533 440 l 1
 523 393 l 1
 406 393 l 1
 386 267 l 1
 503 267 l 1
 492 219 l 1
 378 219 l 1
 357 78 l 1
 309 78 l 1
 331 219 l 1
 206 219 l 1
 184 78 l 1
 135 78 l 1
 157 219 l 1
 35 219 l 1
 47 267 l 1
 164 267 l 1
 185 393 l 1
 67 393 l 1
 77 440 l 1
 192 440 l 1
 215 583 l 1
 264 583 l 1
 241 440 l 1
 366 440 l 1
 389 583 l 1
 436 583 l 1
213 267 m 1
 338 267 l 1
 359 393 l 1
 234 393 l 1
 213 267 l 1
EndSplineSet
Validated: 1
EndChar

StartChar: dollar
Encoding: 36 36 67
Width: 444
VWidth: 838
Flags: HMW
LayerCount: 2
Back
SplineSet
246.143554688 51.1376953125 m 0
 317.401367188 51.1376953125 371.0546875 86.3486328125 371.0546875 155.091796875 c 3
 371.0546875 196.169921875 349.2578125 206.229492188 323.270507812 228.025390625 c 0
 293.927734375 253.17578125 252.850585938 273.295898438 215.962890625 292.577148438 c 0
 158.95703125 322.7578125 104.46484375 353.775390625 75.962890625 412.458007812 c 0
 66.7412109375 430.901367188 62.548828125 452.69921875 62.548828125 477.009765625 c 3
 62.548828125 561.681640625 113.6875 616.172851562 175.723632812 640.484375 c 0
 198.358398438 649.70703125 222.669921875 653.8984375 249.497070312 653.8984375 c 3
 307.341796875 653.8984375 343.389648438 632.939453125 376.084960938 601.920898438 c 1
 402.911132812 645.514648438 l 1
 419.677734375 645.514648438 l 1
 427.22265625 461.08203125 l 1
 405.42578125 461.08203125 l 1
 392.013671875 514.735351562 372.731445312 539.045898438 348.419921875 564.196289062 c 0
 324.108398438 589.346679688 292.250976562 601.920898438 253.688476562 601.920898438 c 3
 191.65234375 601.920898438 150.573242188 567.549804688 150.573242188 506.3515625 c 3
 150.573242188 461.920898438 172.370117188 450.18359375 197.520507812 428.38671875 c 0
 226.0234375 403.237304688 264.586914062 384.793945312 299.796875 365.51171875 c 0
 355.96484375 335.333007812 407.102539062 305.15234375 434.767578125 247.307617188 c 0
 443.151367188 228.864257812 448.181640625 207.068359375 448.181640625 181.91796875 c 3
 448.181640625 123.234375 422.192382812 77.126953125 390.336914062 46.9462890625 c 0
 357.641601562 16.7666015625 309.018554688 -7.544921875 248.658203125 -7.544921875 c 0
 191.65234375 -7.544921875 154.764648438 10.060546875 114.525390625 34.37109375 c 1
 80.9931640625 0 l 1
 64.2255859375 0 l 1
 49.1357421875 214.61328125 l 1
 70.09375 219.643554688 l 1
 86.861328125 151.73828125 108.657226562 125.75 136.322265625 95.5693359375 c 0
 163.986328125 65.3896484375 200.03515625 51.1376953125 246.143554688 51.1376953125 c 0
EndSplineSet
Fore
SplineSet
40 101 m 0
 40 130 56 151 85 151 c 0
 140 151 130 80 155 51 c 0
 167 37 186 29 212 27 c 1
 212 278 l 1
 152 310 93 343 62 405 c 0
 53 425 48 447 48 474 c 0
 48 554 89 608 144 635 c 0
 165 645 187 652 212 655 c 1
 212 744 l 1
 247 744 l 1
 247 655 l 1
 308 652 359 626 384 586 c 0
 390 574 395 559 395 545 c 0
 395 516 377 495 348 495 c 0
 313 495 305 523 298 552 c 0
 289 585 278 608 247 617 c 1
 247 378 l 1
 304 346 361 314 390 254 c 0
 399 234 404 211 404 184 c 0
 404 102 362 42 309 13 c 0
 289 2 270 -6 247 -10 c 1
 247 -86 l 1
 212 -86 l 1
 212 -10 l 5
 141 -10 82 17 54 59 c 0
 45 72 40 85 40 101 c 0
247 29 m 1
 294 40 327 76 327 133 c 0
 327 162 319 185 303 205 c 0
 287 225 270 239 247 255 c 1
 247 29 l 1
212 618 m 1
 165 612 135 575 135 521 c 0
 135 493 143 471 157 451 c 0
 171 431 190 415 212 401 c 1
 212 618 l 1
EndSplineSet
EndChar

StartChar: percent
Encoding: 37 37 68
Width: 677
VWidth: 838
Flags: HMW
LayerCount: 2
Fore
SplineSet
162 623 m 3
 124 623 117 585 113 547 c 0
 111 527 110 502 110 473 c 3
 110 424 111 387 122 356 c 0
 129 337 139 327 162 327 c 3
 201 327 208 363 212 401 c 0
 214 421 215 444 215 473 c 3
 215 522 214 561 203 593 c 0
 197 613 186 623 162 623 c 3
515 348 m 3
 557 348 589 323 609 295 c 0
 632 264 647 219 647 167 c 3
 647 91 615 32 566 4 c 0
 550 -5 534 -10 515 -10 c 3
 473 -10 441 13 421 40 c 0
 398 70 383 116 383 167 c 3
 383 245 414 305 463 334 c 0
 479 343 496 348 515 348 c 3
515 318 m 3
 477 318 469 280 465 242 c 0
 463 222 463 197 463 168 c 3
 463 119 463 82 474 51 c 0
 481 32 492 22 515 22 c 3
 554 22 560 57 564 95 c 0
 566 115 567 139 567 168 c 3
 567 217 566 256 555 288 c 0
 549 308 539 318 515 318 c 3
478 597 m 1
 445 578 413 574 373 574 c 3
 337 574 303 574 261 590 c 1
 261 590 277 566 283 544 c 0
 289 522 295 497 295 472 c 3
 295 396 263 339 214 311 c 0
 198 302 181 297 162 297 c 3
 120 297 88 321 68 348 c 0
 45 378 30 421 30 472 c 3
 30 550 62 612 111 641 c 0
 127 650 143 655 162 655 c 3
 230.272460938 655 302.387597054 599 366 599 c 3
 417 599 465 614 508 645 c 1
 566 645 l 1
 172 0 l 1
 114 0 l 1
 478 597 l 1
EndSplineSet
EndChar

StartChar: period
Encoding: 46 46 69
Width: 210
VWidth: 838
Flags: HMW
LayerCount: 2
Fore
SplineSet
105 -10 m 7
 75 -10 50 16 50 45 c 7
 50 77 73 100 105 100 c 7
 138 100 160 78 160 45 c 7
 160 14 137 -10 105 -10 c 7
EndSplineSet
EndChar

StartChar: exclam
Encoding: 33 33 71
Width: 220
VWidth: 838
Flags: HMW
LayerCount: 2
Fore
SplineSet
94 145 m 1
 88 243 79 342 69 431 c 0
 61 502 50 571 50 629 c 0
 50 667 71 695 110 695 c 0
 150 695 170 667 170 629 c 0
 170 572 158 504 150 435 c 0
 140 345 130 244 124 145 c 1
 94 145 l 1
109 -10 m 3
 79 -10 54 16 54 45 c 3
 54 77 77 100 109 100 c 3
 142 100 164 78 164 45 c 3
 164 14 141 -10 109 -10 c 3
EndSplineSet
EndChar

StartChar: zero
Encoding: 48 48 72
Width: 527
VWidth: 838
Flags: HMW
LayerCount: 2
Fore
SplineSet
262 654 m 7
 335 654 385 607 418 557 c 4
 456 498 482 414 482 319 c 7
 482 182 433 70 348 17 c 4
 321 0 293 -8 262 -8 c 7
 189 -8 139 37 107 86 c 4
 70 143 45 225 45 319 c 7
 45 459 92 572 176 627 c 4
 203 645 231 654 262 654 c 7
262 611 m 7
 211 611 189 583 173 543 c 4
 149 483 147 412 147 320 c 7
 147 229 149 160 173 100 c 4
 189 61 211 34 262 34 c 7
 313 34 337 61 353 100 c 4
 377 159 379 229 379 320 c 7
 379 411 377 482 353 542 c 4
 337 582 313 611 262 611 c 7
EndSplineSet
Validated: 1
EndChar

StartChar: one
Encoding: 49 49 73
Width: 352
VWidth: 838
Flags: HMW
LayerCount: 2
Fore
SplineSet
29 545 m 1
 98 568 154 604 207 654 c 1
 225 647 l 1
 225 35 l 1
 332 19 l 1
 332 0 l 1
 25 0 l 1
 25 19 l 1
 136 35 l 1
 136 527 l 1
 29 527 l 1
 29 545 l 1
EndSplineSet
Validated: 1
EndChar

StartChar: two
Encoding: 50 50 74
Width: 481
VWidth: 838
Flags: HMW
LayerCount: 2
Fore
SplineSet
451 75 m 1
 419 0 l 5
 28 0 l 1
 20 20 l 1
 76 74 123 121 161 163 c 0
 199 205 230 244 254 278 c 0
 278 312 295 345 306 374 c 0
 317 403 323 430 323 457 c 0
 323 517 298 560 258 580 c 0
 245 586 230 590 214 590 c 0
 149 590 97 540 72 493 c 1
 55 502 l 1
 80 566 125 619 189 643 c 0
 209 650 230 654 251 654 c 0
 304 654 344 631 371 602 c 0
 399 573 419 530 419 474 c 0
 419 446 413 420 402 391 c 0
 391 362 374 332 350 300 c 0
 326 268 295 233 258 196 c 0
 221 159 178 118 125 75 c 1
 451 75 l 1
EndSplineSet
Validated: 1
EndChar

StartChar: three
Encoding: 51 51 75
Width: 461
VWidth: 838
Flags: HMW
LayerCount: 2
Fore
SplineSet
193 315 m 0
 177 315 163 313 146 311 c 1
 141 334 l 1
 186 354 220 379 245 408 c 0
 270 437 282 470 282 504 c 0
 282 554 254 595 207 595 c 0
 142 595 97 546 76 495 c 1
 56 500 l 1
 69 569 116 620 176 643 c 0
 196 650 217 654 240 654 c 0
 302 654 345 625 365 583 c 0
 371 567 375 552 375 534 c 0
 375 505 366 479 347 453 c 0
 328 427 303 406 270 386 c 1
 270 382 l 1
 358 375 416 309 416 214 c 0
 416 146 385 92 350 56 c 0
 315 20 263 -8 195 -8 c 0
 127 -8 74 19 49 61 c 0
 41 75 35 89 35 105 c 0
 35 136 53 157 83 157 c 0
 120 157 131 122 140 93 c 0
 151 60 169 29 213 29 c 0
 273 29 310 74 328 118 c 0
 334 135 337 151 337 171 c 0
 337 238 297 283 249 304 c 0
 231 311 213 315 193 315 c 0
EndSplineSet
Validated: 1
EndChar

StartChar: four
Encoding: 52 52 76
Width: 493
VWidth: 838
Flags: HMW
LayerCount: 2
Fore
SplineSet
290 179 m 5
 23 179 l 5
 15 193 l 5
 353 654 l 5
 375 645 l 5
 375 242 l 5
 453 242 l 5
 453 179 l 5
 375 179 l 5
 375 35 l 5
 449 20 l 5
 449 0 l 5
 190 0 l 5
 190 20 l 5
 290 35 l 5
 290 179 l 5
290 487 m 5
 287 487 l 5
 113 246 l 5
 115 242 l 5
 290 242 l 5
 290 487 l 5
EndSplineSet
Validated: 1
EndChar

StartChar: five
Encoding: 53 53 77
Width: 461
VWidth: 838
Flags: HMW
LayerCount: 2
Fore
SplineSet
30 97 m 4
 30 127 45 146 74 146 c 4
 124 146 125 90 145 60 c 4
 156 42 175 29 205 29 c 4
 247 29 277 50 298 75 c 4
 321 102 336 142 336 189 c 4
 336 264 300 315 246 338 c 4
 227 345 208 349 185 349 c 4
 151 349 120 339 94 317 c 5
 82 318 l 5
 125 635 l 5
 392 635 l 5
 369 559 l 5
 154 559 l 5
 132 415 l 5
 157 423 176 428 206 428 c 4
 305 428 371 377 400 307 c 4
 410 282 416 254 416 224 c 4
 416 152 385 96 348 59 c 4
 311 22 254 -8 183 -8 c 4
 118 -8 67 16 42 56 c 4
 35 68 30 81 30 97 c 4
EndSplineSet
Validated: 1
EndChar

StartChar: six
Encoding: 54 54 78
Width: 491
VWidth: 838
Flags: HMW
LayerCount: 2
Back
SplineSet
153.927734375 345.391601562 m 5
 178.305664062 370.875976562 229.34375 388.985351562 279.677734375 388.985351562 c 4
 367.99609375 388.985351562 423.41015625 340.836914062 448.182617188 275.811523438 c 4
 457.125 252.337890625 461.596679688 226.348632812 461.596679688 197.846679688 c 4
 461.596679688 98.7421875 407.99609375 34.7978515625 335.428710938 6.70703125 c 4
 309.439453125 -3.353515625 280.796875 -8.3837890625 249.499023438 -8.3837890625 c 4
 145.30078125 -8.3837890625 84.4755859375 48.3779296875 58.359375 128.264648438 c 4
 48.859375 157.327148438 44.1083984375 190.30078125 44.1083984375 227.1875 c 4
 44.1083984375 332.456054688 81.525390625 418.197265625 130.037109375 482.877929688 c 4
 185.637695312 557.012695312 265.131835938 616.0234375 360.158203125 651.3828125 c 5
 366.864257812 630.423828125 l 5
 313.696289062 602.067382812 263.91015625 553.200195312 227.701171875 505.09375 c 4
 195.396484375 462.171875 162.061523438 405.034179688 153.927734375 345.391601562 c 5
142.193359375 202.038085938 m 4
 142.193359375 112.658203125 173.46875 35.208984375 254.529296875 35.208984375 c 4
 329.76171875 35.208984375 361.834960938 102.133789062 361.834960938 183.594726562 c 4
 361.834960938 269.286132812 326.592773438 341.201171875 246.983398438 341.201171875 c 4
 204.919921875 341.201171875 170.579101562 321.384765625 152.252929688 295.9296875 c 5
 146.841796875 271.0390625 142.193359375 232.497070312 142.193359375 202.038085938 c 4
EndSplineSet
Fore
SplineSet
154 345 m 1
 179 370 228 389 279 389 c 0
 367 389 424 341 449 276 c 0
 458 252 461 226 461 197 c 0
 461 98 408 35 335 6 c 0
 309 -4 280 -8 249 -8 c 0
 145 -8 84 48 58 128 c 0
 49 157 45 190 45 227 c 0
 45 332 81 419 130 483 c 0
 186 556 265 616 360 651 c 1
 367 631 l 1
 314 602 263 552 227 504 c 0
 194 462 162 405 154 345 c 1
142 202 m 0
 142 112 172 35 254 35 c 0
 329 35 362 102 362 184 c 0
 362 270 327 341 247 341 c 0
 205 341 169 306 150 281 c 1
 145 255 142 232 142 202 c 0
EndSplineSet
Validated: 1
EndChar

StartChar: seven
Encoding: 55 55 79
Width: 414
VWidth: 838
Flags: HMW
LayerCount: 2
Fore
SplineSet
91 559 m 1
 67 539 56 524 37 495 c 1
 20 504 l 1
 78 637 l 1
 400 637 l 1
 406 624 l 1
 340 472 288 337 234 173 c 0
 222 136 207 91 191 40 c 0
 181 7 164 -8 138 -8 c 0
 112 -8 97 8 97 34 c 0
 97 45 101 57 107 73 c 0
 113 89 120 108 130 129 c 1
 315 559 l 1
 91 559 l 1
EndSplineSet
Validated: 1
EndChar

StartChar: eight
Encoding: 56 56 80
Width: 494
VWidth: 838
Flags: HMW
LayerCount: 2
Fore
SplineSet
310 369 m 1
 358 340 393 311 415 281 c 0
 437 251 449 217 449 180 c 0
 449 64 356 -8 240 -8 c 0
 131 -8 45 55 45 163 c 0
 45 252 103 300 172 336 c 1
 114 374 64 414 64 494 c 0
 64 595 145 654 247 654 c 0
 340 654 419 604 419 513 c 0
 419 453 383 405 310 369 c 1
242 616 m 0
 183 616 143 580 143 522 c 0
 143 448 207 415 271 386 c 1
 321 422 345 464 345 513 c 0
 345 575 304 616 242 616 c 0
252 29 m 0
 324 29 372 73 372 144 c 0
 372 239 292 278 209 315 c 1
 161 286 128 236 128 164 c 0
 128 83 172 29 252 29 c 0
EndSplineSet
Validated: 1
EndChar

StartChar: nine
Encoding: 57 57 81
Width: 493
VWidth: 838
Flags: HMW
LayerCount: 2
Fore
SplineSet
338 298 m 1
 313 273 263 254 212 254 c 3
 99 254 30 333 30 446 c 3
 30 572 117 651 243 651 c 3
 380 651 448 555 448 416 c 3
 448 311 411 224 362 160 c 0
 306 87 227 26 132 -8 c 1
 125 12 l 1
 178 41 229 91 265 139 c 0
 298 181 330 238 338 298 c 1
349 441 m 3
 349 531 320 606 238 606 c 3
 163 606 130 541 130 459 c 3
 130 373 165 310 245 310 c 3
 287 310 321 331 340 356 c 1
 345 381 349 411 349 441 c 3
EndSplineSet
Validated: 1
EndChar

StartChar: question
Encoding: 63 63 82
Width: 362
VWidth: 838
Flags: HMW
LayerCount: 2
Fore
SplineSet
167 -8 m 7
 134 -8 114 15 114 47 c 7
 114 79 136 100 168 100 c 7
 200 100 222 79 222 47 c 7
 222 15 199 -8 167 -8 c 7
107 510 m 4
 107 485 117 492 117 468 c 4
 117 448 92 438 76 438 c 4
 63 438 40 445 40 474 c 4
 40 546 110 606 188 606 c 4
 274 606 329 540 329 464 c 7
 329 398 277 362 238 333 c 4
 198 304 186 286 186 229 c 6
 186 193 l 29
 151 193 l 29
 151 232 l 6
 151 268 155 316 210 366 c 4
 243 397 255 422 255 461 c 7
 255 516 232 553 184 553 c 4
 136 553 107 535 107 510 c 4
EndSplineSet
EndChar

StartChar: uni0000
Encoding: 0 0 83
Width: 718
VWidth: 838
Flags: HMW
LayerCount: 2
Back
SplineSet
518.088867188 315.211914062 m 5
 201.19921875 315.211914062 l 5
 201.19921875 35.208984375 l 5
 275.811523438 19.2822265625 l 5
 275.811523438 0 l 5
 37.724609375 0 l 5
 37.724609375 19.2822265625 l 5
 113.174804688 35.208984375 l 5
 113.174804688 610.3046875 l 5
 37.724609375 626.233398438 l 5
 37.724609375 645.514648438 l 5
 275.811523438 645.514648438 l 5
 275.811523438 626.233398438 l 5
 201.19921875 610.3046875 l 5
 201.19921875 373.056640625 l 5
 518.088867188 373.056640625 l 5
 518.088867188 610.3046875 l 5
 442.638671875 626.233398438 l 5
 442.638671875 645.514648438 l 5
 680.724609375 645.514648438 l 5
 680.724609375 624.556640625 l 5
 606.112304688 610.3046875 l 5
 606.112304688 35.208984375 l 5
 680.724609375 17.60546875 l 5
 680.724609375 0 l 5
 442.638671875 0 l 5
 442.638671875 19.2822265625 l 5
 518.088867188 35.208984375 l 5
 518.088867188 315.211914062 l 5
EndSplineSet
Fore
SplineSet
37 645 m 1
 681 645 l 1
 681 0 l 1
 37 0 l 1
 37 645 l 1
113 570 m 1
 113 75 l 1
 606 75 l 1
 606 570 l 1
 113 570 l 1
359 513 m 0
 327 513 312 494 302 468 c 0
 286 430 285 385 285 326 c 0
 285 290 286 260 290 232 c 1
 418 466 l 2
 417 468 l 0
 407 494 391 513 359 513 c 0
359 539 m 0
 406 539 438 509 459 477 c 0
 484 440 499 387 499 326 c 0
 499 238 470 164 415 131 c 0
 398 120 379 116 359 116 c 0
 312 116 279 144 259 175 c 0
 234 212 219 266 219 326 c 0
 219 415 250 488 304 523 c 0
 321 534 339 539 359 539 c 0
299 192 m 2
 300 190 301 186 302 184 c 0
 312 159 327 143 359 143 c 0
 391 143 407 160 417 185 c 0
 433 222 434 268 434 326 c 0
 434 365 433 399 428 428 c 1
 299 192 l 2
EndSplineSet
Validated: 1
EndChar

StartChar: plusminus
Encoding: 177 177 84
Width: 484
VWidth: 838
Flags: HMW
LayerCount: 2
Fore
SplineSet
221 354 m 1
 70 354 l 1
 70 395 l 1
 221 395 l 1
 221 546 l 1
 265 546 l 1
 265 395 l 1
 414 395 l 1
 414 354 l 1
 265 354 l 1
 265 202 l 1
 221 202 l 1
 221 354 l 1
70 89 m 1
 70 130 l 1
 414 130 l 1
 414 89 l 1
 70 89 l 1
EndSplineSet
Validated: 1
EndChar

StartChar: uni00B2
Encoding: 178 178 85
Width: 339
VWidth: 838
Flags: HMW
LayerCount: 2
Fore
SplineSet
37 672 m 1
 58 728 104 776 174 776 c 0
 230 776 268 744 285 704 c 0
 291 690 295 674 295 657 c 0
 295 613 277 582 253 553 c 0
 214 503 165 465 109 421 c 5
 290 421 l 5
 264 348 l 1
 29 348 l 1
 24 380 l 1
 81 434 130 483 170 539 c 0
 186 560 196 577 202 595 c 0
 208 613 212 630 212 646 c 0
 212 689 188 724 146 724 c 0
 104 724 72 690 56 660 c 1
 37 672 l 1
EndSplineSet
Validated: 1
EndChar

StartChar: uni00B3
Encoding: 179 179 86
Width: 325
VWidth: 838
Flags: HMW
LayerCount: 2
Fore
SplineSet
130 551 m 4
 121 551 107 550 100 548 c 5
 93 573 l 5
 122 584 145 598 162 618 c 4
 179 638 188 656 188 677 c 4
 188 706 170 726 141 726 c 4
 104 726 75 700 62 673 c 5
 44 681 l 5
 55 735 103 776 167 776 c 4
 222 776 265 745 265 691 c 4
 265 644 228 614 190 604 c 5
 190 601 l 5
 249 596 290 553 290 489 c 4
 290 421 247 374 197 354 c 4
 178 347 160 343 139 343 c 4
 92 343 55 360 37 389 c 4
 31 398 29 409 29 420 c 4
 29 443 41 459 64 459 c 4
 90 459 97 438 104 419 c 4
 112 398 122 378 151 378 c 4
 192 378 215 413 215 456 c 4
 215 512 184 551 130 551 c 4
EndSplineSet
Validated: 1
EndChar

StartChar: degree
Encoding: 176 176 87
Width: 283
VWidth: 838
Flags: HMW
LayerCount: 2
Fore
SplineSet
142 492 m 3
 82 492 40 534 40 593 c 3
 40 652 83 696 142 696 c 3
 201 696 243 652 243 593 c 3
 243 533 201 492 142 492 c 3
142 663 m 3
 103 663 74 632 74 593 c 3
 74 555 104 526 142 526 c 3
 181 526 209 554 209 593 c 3
 209 633 182 663 142 663 c 3
EndSplineSet
Validated: 1
EndChar

StartChar: acute
Encoding: 180 180 88
Width: 141
VWidth: 838
Flags: HMW
LayerCount: 2
Fore
SplineSet
101 720 m 0
 121 720 134 704 134 684 c 0
 134 661 123 649 109 633 c 2
 26 529 l 1
 8 539 l 1
 56 681 l 2
 63 703 73 720 101 720 c 0
EndSplineSet
Validated: 1
EndChar

StartChar: periodcentered
Encoding: 183 183 89
Width: 235
VWidth: 838
Flags: HMW
LayerCount: 2
Fore
SplineSet
118 184 m 7
 85 184 60 208 60 241 c 7
 60 274 84 300 118 300 c 7
 152 300 176 275 176 241 c 7
 176 208 151 184 118 184 c 7
EndSplineSet
Validated: 1
EndChar

StartChar: multiply
Encoding: 215 215 90
Width: 410
VWidth: 838
Flags: HMW
LayerCount: 2
Fore
SplineSet
173 285 m 1
 56 402 l 1
 87 433 l 1
 205 316 l 1
 322 433 l 1
 355 401 l 1
 237 283 l 1
 354 166 l 1
 323 135 l 1
 206 252 l 1
 88 134 l 1
 55 166 l 1
 173 285 l 1
EndSplineSet
Validated: 1
EndChar

StartChar: dieresis
Encoding: 168 168 91
Width: 269
VWidth: 838
Flags: HMW
LayerCount: 2
Fore
SplineSet
57 561 m 3
 30 561 10 582 10 608 c 3
 10 635 29 654 57 654 c 3
 86 654 102 636 102 608 c 3
 102 581 85 561 57 561 c 3
213 561 m 3
 186 561 167 582 167 608 c 3
 167 635 185 654 213 654 c 3
 242 654 259 636 259 608 c 3
 259 581 241 561 213 561 c 3
EndSplineSet
Validated: 1
EndChar

StartChar: macron
Encoding: 175 175 92
Width: 261
VWidth: 838
Flags: HMW
LayerCount: 2
Fore
SplineSet
10 594 m 1
 10 654 l 1
 251 654 l 1
 251 594 l 1
 10 594 l 1
EndSplineSet
Validated: 1
EndChar

StartChar: bracketleft
Encoding: 91 91 93
Width: 271
VWidth: 838
Flags: HMW
LayerCount: 2
Fore
SplineSet
85 -157 m 5
 85 687 l 5
 251 687 l 5
 251 661 l 5
 153 661 l 5
 153 -131 l 5
 251 -131 l 5
 251 -157 l 5
 85 -157 l 5
EndSplineSet
Validated: 1
EndChar

StartChar: backslash
Encoding: 92 92 94
Width: 297
VWidth: 838
Flags: HMW
LayerCount: 2
Fore
SplineSet
205 -142 m 5
 35 686 l 5
 94 686 l 5
 262 -142 l 5
 205 -142 l 5
EndSplineSet
Validated: 1
EndChar

StartChar: bracketright
Encoding: 93 93 95
Width: 272
VWidth: 838
Flags: HMW
LayerCount: 2
Fore
SplineSet
20 -157 m 5
 20 -131 l 5
 119 -131 l 5
 119 661 l 5
 20 661 l 5
 20 687 l 5
 187 687 l 5
 187 -157 l 5
 20 -157 l 5
EndSplineSet
Validated: 1
EndChar

StartChar: asciicircum
Encoding: 94 94 96
Width: 410
VWidth: 838
Flags: HMW
LayerCount: 2
Fore
SplineSet
35 278 m 5
 191 596 l 5
 221 596 l 5
 375 278 l 5
 340 278 l 5
 207 544 l 5
 204 544 l 5
 71 278 l 5
 35 278 l 5
EndSplineSet
Validated: 1
EndChar

StartChar: underscore
Encoding: 95 95 97
Width: 566
VWidth: 811
Flags: HMW
LayerCount: 2
Fore
SplineSet
60 -36 m 5
 60 0 l 5
 506 0 l 5
 506 -36 l 5
 60 -36 l 5
EndSplineSet
Validated: 1
EndChar

StartChar: grave
Encoding: 96 96 98
Width: 146
VWidth: 838
Flags: HMW
LayerCount: 2
Fore
SplineSet
10 684 m 3
 10 704 23 720 43 720 c 3
 71 720 82 703 89 681 c 2
 136 539 l 1
 119 529 l 1
 35 633 l 2
 21 649 10 661 10 684 c 3
EndSplineSet
Validated: 1
EndChar

StartChar: quotedblleft
Encoding: 8220 8220 99
Width: 328
VWidth: 838
Flags: HMW
LayerCount: 2
Fore
SplineSet
81 462 m 3
 44 462 21 496 21 533 c 3
 21 612 58 659 109 696 c 1
 125 672 l 1
 109 661 97 647 88 634 c 0
 79 621 73 609 73 600 c 3
 73 579 90 570 104 563 c 0
 121 554 136 544 136 518 c 3
 136 486 113 462 81 462 c 3
241 462 m 3
 204 462 182 496 182 533 c 3
 182 612 219 659 270 696 c 1
 286 672 l 1
 270 661 258 647 249 634 c 0
 240 621 235 609 235 600 c 3
 235 579 252 570 266 563 c 0
 283 554 298 544 298 518 c 3
 298 486 273 462 241 462 c 3
EndSplineSet
Validated: 1
EndChar

StartChar: quotedblright
Encoding: 8221 8221 100
Width: 328
VWidth: 838
Flags: HMW
LayerCount: 2
Fore
SplineSet
248 696 m 3
 285 696 308 661 308 624 c 3
 308 545 271 499 220 462 c 1
 204 486 l 1
 220 497 232 511 241 524 c 0
 250 537 255 549 255 558 c 7
 255 579 238 587 224 594 c 0
 207 603 192 614 192 640 c 3
 192 672 216 696 248 696 c 3
88 696 m 3
 125 696 147 661 147 624 c 3
 147 545 110 499 59 462 c 1
 42 486 l 1
 58 497 71 511 80 524 c 0
 89 537 94 549 94 558 c 7
 94 579 77 587 63 594 c 0
 46 603 31 614 31 640 c 3
 31 672 56 696 88 696 c 3
EndSplineSet
Validated: 1
EndChar

StartChar: quotedblbase
Encoding: 8222 8222 101
Width: 381
VWidth: 838
Flags: HMW
LayerCount: 2
Fore
SplineSet
269 108 m 3
 306 108 329 73 329 36 c 3
 329 -43 292 -89 241 -126 c 1
 224 -102 l 1
 240 -91 253 -77 262 -64 c 0
 271 -51 276 -39 276 -30 c 3
 276 -9 259 -1 245 6 c 0
 228 15 213 25 213 51 c 3
 213 83 237 108 269 108 c 3
109 108 m 3
 146 108 167 73 167 36 c 3
 167 -43 131 -89 80 -126 c 1
 63 -102 l 1
 79 -91 91 -77 100 -64 c 0
 109 -51 115 -39 115 -30 c 3
 115 -9 98 -1 84 6 c 0
 67 15 52 25 52 51 c 3
 52 83 77 108 109 108 c 3
EndSplineSet
Validated: 1
EndChar

StartChar: quoteleft
Encoding: 8216 8216 102
Width: 165
VWidth: 838
Flags: HMW
LayerCount: 2
Fore
SplineSet
80 462 m 7
 43 462 20 496 20 533 c 7
 20 612 57 659 108 696 c 5
 124 672 l 5
 108 661 96 647 87 634 c 4
 78 621 72 609 72 600 c 7
 72 579 89 570 103 563 c 4
 120 554 135 544 135 518 c 7
 135 486 112 462 80 462 c 7
EndSplineSet
Validated: 1
EndChar

StartChar: quoteright
Encoding: 8217 8217 103
Width: 166
VWidth: 838
Flags: HMW
LayerCount: 2
Fore
SplineSet
87 696 m 3
 124 696 146 661 146 624 c 3
 146 545 109 499 58 462 c 1
 41 486 l 1
 57 497 70 511 79 524 c 0
 88 537 93 549 93 558 c 3
 93 579 76 587 62 594 c 0
 45 603 30 614 30 640 c 3
 30 672 55 696 87 696 c 3
EndSplineSet
Validated: 1
EndChar

StartChar: ellipsis
Encoding: 8230 8230 104
Width: 688
VWidth: 838
Flags: HMW
LayerCount: 2
Fore
SplineSet
109 -8 m 4
 76 -8 52 16 52 49 c 4
 52 82 75 108 109 108 c 4
 143 108 167 83 167 49 c 4
 167 16 142 -8 109 -8 c 4
344 -8 m 4
 311 -8 286 16 286 49 c 4
 286 82 310 108 344 108 c 4
 378 108 402 83 402 49 c 4
 402 16 377 -8 344 -8 c 4
579 -8 m 4
 546 -8 521 16 521 49 c 4
 521 82 545 108 579 108 c 4
 613 108 637 83 637 49 c 4
 637 16 612 -8 579 -8 c 4
EndSplineSet
Validated: 1
EndChar

StartChar: fraction
Encoding: 8260 8260 105
Width: 183
VWidth: 838
Flags: HMW
LayerCount: 2
Fore
SplineSet
-133 0 m 5
 259 645 l 5
 318 645 l 5
 -75 0 l 5
 -133 0 l 5
EndSplineSet
Validated: 1
EndChar

StartChar: bullet
Encoding: 8226 8226 106
Width: 343
VWidth: 838
Flags: HMW
LayerCount: 2
Fore
SplineSet
71 313 m 3
 71 369 116 410 172 410 c 3
 228 410 273 369 273 313 c 3
 273 257 228 217 172 217 c 3
 116 217 71 257 71 313 c 3
EndSplineSet
Validated: 1
EndChar

StartChar: dagger
Encoding: 8224 8224 107
Width: 372
VWidth: 838
Flags: HMW
LayerCount: 2
Fore
SplineSet
186 590 m 0
 202 590 214 573 214 552 c 2
 214 388 l 25
 293 390 l 2
 319 390 326 373 326 362 c 0
 326 351 319 332 293 332 c 0
 270 332 245 342 214 348 c 1
 214 188 l 2
 214 52 204 -84 198 -152 c 0
 196 -170 196 -181 186 -181 c 0
 175 -181 176 -165 174 -152 c 0
 168 -84 157 52 157 188 c 2
 157 348 l 1
 126 342 99 332 79 332 c 0
 53 332 47 352 47 362 c 0
 47 376 56 390 79 390 c 2
 157 388 l 25
 157 552 l 2
 157 573 170 590 186 590 c 0
EndSplineSet
Validated: 1
EndChar

StartChar: daggerdbl
Encoding: 8225 8225 108
Width: 372
VWidth: 838
Flags: HMW
LayerCount: 2
Back
SplineSet
46.9462890625 18.443359375 m 0
 46.9462890625 31.017578125 53.6533203125 47.7841796875 79.6416015625 47.7841796875 c 0
 106.467773438 47.7841796875 146.708007812 31.017578125 176.887695312 27.6650390625 c 1
 175.2109375 70.419921875 156.768554688 135.809570312 156.768554688 172.696289062 c 0
 156.768554688 204.552734375 176.887695312 208.745117188 186.109375 208.745117188 c 0
 197.0078125 208.745117188 215.451171875 202.038085938 215.451171875 176.048828125 c 0
 215.451171875 131.618164062 197.0078125 77.126953125 194.493164062 27.6650390625 c 1
 228.025390625 31.017578125 265.750976562 47.7841796875 292.577148438 47.7841796875 c 0
 313.536132812 47.7841796875 325.272460938 35.208984375 325.272460938 18.443359375 c 0
 325.272460938 7.544921875 319.404296875 -10.8984375 292.577148438 -10.8984375 c 0
 265.750976562 -10.8984375 224.671875 5.8681640625 194.493164062 9.2216796875 c 1
 196.169921875 -33.533203125 215.451171875 -98.9228515625 215.451171875 -135.809570312 c 0
 215.451171875 -167.666015625 195.331054688 -171.857421875 186.109375 -171.857421875 c 0
 175.2109375 -171.857421875 156.768554688 -164.3125 156.768554688 -138.325195312 c 0
 156.768554688 -93.8935546875 174.373046875 -40.2392578125 176.887695312 9.2216796875 c 1
 142.516601562 5.8681640625 105.62890625 -10.8984375 79.6416015625 -10.8984375 c 0
 53.6533203125 -10.8984375 46.9462890625 8.3837890625 46.9462890625 18.443359375 c 0
46.9462890625 400.72265625 m 0
 46.9462890625 410.78125 51.9765625 429.225585938 79.6416015625 429.225585938 c 0
 108.982421875 429.225585938 142.516601562 412.458007812 176.887695312 409.104492188 c 1
 175.2109375 451.860351562 156.768554688 518.088867188 156.768554688 554.974609375 c 0
 156.768554688 586.83203125 176.887695312 590.185546875 186.109375 590.185546875 c 0
 197.0078125 590.185546875 215.451171875 583.478515625 215.451171875 557.490234375 c 0
 215.451171875 513.05859375 197.0078125 458.567382812 194.493164062 409.104492188 c 1
 225.510742188 412.458007812 264.07421875 429.225585938 291.73828125 429.225585938 c 0
 318.565429688 429.225585938 325.272460938 412.458007812 325.272460938 400.72265625 c 0
 325.272460938 389.82421875 319.404296875 371.380859375 292.577148438 371.380859375 c 0
 263.236328125 371.380859375 228.864257812 388.147460938 194.493164062 391.500976562 c 1
 196.169921875 348.745117188 215.451171875 282.516601562 215.451171875 245.630859375 c 0
 215.451171875 213.774414062 195.331054688 210.420898438 186.109375 210.420898438 c 0
 175.2109375 210.420898438 156.768554688 217.127929688 156.768554688 243.116210938 c 0
 156.768554688 287.546875 174.373046875 342.0390625 176.887695312 391.500976562 c 1
 147.546875 388.985351562 106.467773438 371.380859375 78.8037109375 371.380859375 c 0
 51.9765625 371.380859375 46.9462890625 390.662109375 46.9462890625 400.72265625 c 0
EndSplineSet
Fore
SplineSet
214 256 m 25
 293 259 l 2
 319 259 326 242 326 231 c 0
 326 220 319 202 293 202 c 0
 270 202 245 212 214 218 c 1
 214 188 l 2
 214 52 204 -84 198 -152 c 0
 196 -170 196 -181 186 -181 c 0
 175 -181 176 -165 174 -152 c 0
 168 -84 157 52 157 188 c 2
 157 218 l 1
 126 212 99 202 79 202 c 0
 53 202 47 221 47 231 c 0
 47 245 56 259 79 259 c 2
 157 256 l 25
 157 348 l 1
 126 342 99 332 79 332 c 0
 53 332 47 352 47 362 c 0
 47 376 56 390 79 390 c 2
 157 388 l 25
 157 552 l 2
 157 573 170 590 186 590 c 0
 202 590 214 573 214 552 c 2
 214 388 l 25
 293 390 l 2
 319 390 326 373 326 362 c 0
 326 351 319 332 293 332 c 0
 270 332 245 342 214 348 c 1
 214 256 l 25
EndSplineSet
Validated: 1
EndChar

StartChar: endash
Encoding: 8211 8211 109
Width: 630
VWidth: 838
Flags: HMW
LayerCount: 2
Back
SplineSet
65.3896484375 336.170898438 m 1
 65.3896484375 373.056640625 l 1
 409.104492188 373.056640625 l 1
 409.104492188 336.170898438 l 1
 65.3896484375 336.170898438 l 1
65.3896484375 201.19921875 m 1
 65.3896484375 238.0859375 l 1
 409.104492188 238.0859375 l 1
 409.104492188 201.19921875 l 1
 65.3896484375 201.19921875 l 1
633.778320312 97.24609375 m 0
 633.778320312 127.426757812 648.868164062 145.870117188 678.208984375 145.870117188 c 0
 727.670898438 145.870117188 728.508789062 89.7021484375 748.62890625 59.521484375 c 0
 760.366210938 41.916015625 777.971679688 29.341796875 808.150390625 29.341796875 c 0
 850.06640625 29.341796875 880.247070312 51.1376953125 901.206054688 75.4501953125 c 0
 923.83984375 102.276367188 939.768554688 142.516601562 939.768554688 189.462890625 c 0
 939.768554688 264.913085938 902.8828125 315.211914062 849.228515625 337.84765625 c 0
 830.786132812 345.391601562 810.666015625 349.583007812 788.030273438 349.583007812 c 0
 753.659179688 349.583007812 723.478515625 338.685546875 697.491210938 316.888671875 c 1
 684.916015625 318.565429688 l 1
 728.508789062 634.616210938 l 1
 995.098632812 634.616210938 l 1
 972.462890625 559.166015625 l 1
 757.012695312 559.166015625 l 1
 736.053710938 414.134765625 l 1
 760.366210938 422.518554688 778.809570312 427.548828125 808.989257812 427.548828125 c 0
 907.913085938 427.548828125 974.139648438 377.249023438 1003.48144531 306.829101562 c 0
 1013.54199219 281.6796875 1018.57226562 254.014648438 1018.57226562 223.833984375 c 0
 1018.57226562 151.73828125 989.23046875 96.4072265625 951.505859375 58.6826171875 c 0
 913.780273438 21.796875 857.612304688 -8.3837890625 786.353515625 -8.3837890625 c 0
 720.96484375 -8.3837890625 669.826171875 15.08984375 645.514648438 55.330078125 c 0
 637.969726562 67.9052734375 633.778320312 82.15625 633.778320312 97.24609375 c 0
-162.635742188 178.564453125 m 1
 -430.901367188 178.564453125 l 1
 -437.608398438 192.81640625 l 1
 -99.7607421875 653.8984375 l 1
 -77.96484375 645.514648438 l 1
 -77.96484375 242.27734375 l 1
 0 242.27734375 l 1
 0 178.564453125 l 1
 -77.96484375 178.564453125 l 1
 -77.96484375 35.208984375 l 1
 -3.353515625 19.2822265625 l 1
 -3.353515625 0 l 1
 -263.236328125 0 l 1
 -263.236328125 19.2822265625 l 1
 -162.635742188 35.208984375 l 1
 -162.635742188 178.564453125 l 1
-166.827148438 487.0703125 m 1
 -170.180664062 487.0703125 l 1
 -343.715820312 245.630859375 l 1
 -342.877929688 242.27734375 l 1
 -166.827148438 242.27734375 l 1
 -166.827148438 487.0703125 l 1
EndSplineSet
Fore
SplineSet
64 264 m 5
 64 314 l 5
 566 314 l 5
 566 264 l 5
 64 264 l 5
EndSplineSet
Validated: 1
EndChar

StartChar: emdash
Encoding: 8212 8212 110
Width: 900
VWidth: 838
Flags: HMW
LayerCount: 2
Fore
SplineSet
64 186 m 5
 64 237 l 5
 836 237 l 5
 836 186 l 5
 64 186 l 5
EndSplineSet
Validated: 1
EndChar

StartChar: asterisk
Encoding: 42 42 111
Width: 407
VWidth: 838
Flags: HMW
LayerCount: 2
Back
SplineSet
352.098632812 407.4296875 m 0
 352.098632812 387.374023438 337.737304688 374.733398438 317.727539062 374.733398438 c 0
 298.569335938 374.733398438 286.997070312 386.129882812 276.649414062 396.950195312 c 0
 263.416015625 410.786132812 250.374023438 426.771484375 234.732421875 439.28515625 c 2
 212.936523438 456.051757812 l 1
 217.130859375 427.548828125 l 2
 219.924804688 408.546875 223.697265625 391.779296875 228.447265625 377.249023438 c 0
 233.198242188 362.717773438 235.573242188 349.864257812 235.573242188 338.686523438 c 0
 235.573242188 319.353515625 224.23828125 305.153320312 204.555664062 305.153320312 c 0
 183.672851562 305.153320312 172.698242188 320.713867188 172.698242188 342.040039062 c 0
 172.698242188 354.3359375 175.353515625 367.749023438 180.662109375 382.279296875 c 0
 185.971679688 396.810546875 189.744140625 412.1796875 191.98046875 428.38671875 c 2
 195.333984375 456.051757812 l 1
 171.860351562 438.447265625 l 1
 149.744140625 420.75390625 134.342773438 395.3515625 111.081054688 380.182617188 c 0
 104.654296875 375.991210938 97.2490234375 373.895507812 88.8662109375 373.895507812 c 0
 68.5849609375 373.895507812 54.494140625 386.831054688 54.494140625 406.588867188 c 0
 54.494140625 427.692382812 71.7041015625 434.4765625 89.28515625 439.704101562 c 0
 112.774414062 446.688476562 138.87890625 451.044921875 160.962890625 461.08203125 c 2
 185.2734375 471.979492188 l 1
 159.286132812 482.877929688 l 2
 129.720703125 494.97265625 87.666015625 496.084960938 64.1337890625 513.477539062 c 0
 57.7060546875 518.227539062 54.4931640625 525.633789062 54.4931640625 535.692382812 c 0
 54.4931640625 555.8828125 67.8408203125 569.2265625 88.865234375 569.2265625 c 0
 107.994140625 569.2265625 118.741210938 557.845703125 129.103515625 547.010742188 c 0
 142.912109375 532.57421875 155.192382812 516.192382812 172.696289062 503.836914062 c 2
 194.493164062 487.908203125 l 1
 191.140625 516.412109375 l 2
 188.904296875 534.854492188 185.131835938 550.084960938 179.822265625 562.100585938 c 0
 174.513671875 574.116210938 171.858398438 586.83203125 171.858398438 600.244140625 c 0
 171.858398438 623.474609375 182.643554688 638.80859375 203.715820312 638.80859375 c 0
 224.025390625 638.80859375 234.733398438 622.962890625 234.733398438 600.244140625 c 0
 234.733398438 585.676757812 229.541015625 573.959960938 225.931640625 562.100585938 c 0
 221.55078125 547.704101562 216.499023438 533.5625 215.452148438 514.735351562 c 2
 212.9375 487.908203125 l 1
 233.89453125 504.674804688 l 2
 252.451171875 519.32421875 264.919921875 534.58203125 279.584960938 549.944335938 c 0
 289.475585938 560.305664062 299.583984375 570.063476562 317.728515625 570.063476562 c 0
 339.099609375 570.063476562 352.099609375 556.541992188 352.099609375 536.529296875 c 0
 352.099609375 514.827148438 335.615234375 507.965820312 317.728515625 502.997070312 c 0
 294.76953125 496.620117188 269.296875 492.7109375 247.307617188 483.71484375 c 2
 221.318359375 472.81640625 l 1
 245.630859375 461.918945312 l 2
 269.015625 451.201171875 293.931640625 446.965820312 318.565429688 440.124023438 c 0
 336.061523438 435.264648438 352.098632812 428.325195312 352.098632812 407.4296875 c 0
EndSplineSet
Fore
SplineSet
185 455 m 5
 89 485 l 6
 71 490 55 496 55 518 c 4
 55 538 68 553 89 553 c 4
 108 553 117 542 127 532 c 6
 194 471 l 5
 172 584 l 7
 172 608 183 622 204 622 c 7
 224 622 235 607 235 584 c 4
 213 471 l 5
 280 533 l 6
 290 543 298 553 317 553 c 4
 338 553 352 539 352 519 c 4
 352 497 335 491 317 486 c 6
 221 455 l 5
 318 423 l 6
 335 417 352 411 352 390 c 4
 352 370 337 358 317 358 c 4
 297 358 290 368 277 380 c 6
 213 439 l 5
 236 322 l 4
 236 302 225 288 205 288 c 7
 184 288 173 304 173 325 c 4
 195 439 l 5
 130 379 l 6
 117 367 109 357 89 357 c 4
 69 357 55 369 55 389 c 4
 55 410 71 416 88 422 c 6
 185 455 l 5
EndSplineSet
EndChar

StartChar: hyphen
Encoding: 45 45 112
Width: 388
VWidth: 838
Flags: HMW
LayerCount: 2
Fore
SplineSet
60 176 m 5
 60 246 l 5
 328 246 l 5
 328 176 l 5
 60 176 l 5
EndSplineSet
Validated: 1
EndChar

StartChar: slash
Encoding: 47 47 113
Width: 297
VWidth: 838
Flags: HMW
LayerCount: 2
Fore
SplineSet
35 -142 m 5
 204 686 l 5
 262 686 l 5
 93 -142 l 5
 35 -142 l 5
EndSplineSet
Validated: 1
EndChar

StartChar: parenright
Encoding: 41 41 114
Width: 266
VWidth: 838
Flags: HMW
LayerCount: 2
Fore
SplineSet
148 338 m 7
 148 166 105 28 41 -75 c 1
 54 -85 l 1
 149 12 226 144 226 338 c 7
 226 522.16907587 142.355531264 696.444464274 40 780 c 1
 30 771 l 1
 97.982104746 670.198948135 148 505.531415882 148 338 c 7
EndSplineSet
EndChar

StartChar: parenleft
Encoding: 40 40 115
Width: 266
VWidth: 838
Flags: HMW
LayerCount: 2
Fore
SplineSet
118 338 m 3
 118 166 161 28 225 -75 c 1
 212 -85 l 1
 117 12 40 144 40 338 c 3
 40 522.16907587 123.644468736 696.444464274 226 780 c 1
 236 771 l 1
 168.017895254 670.198948135 118 505.531415882 118 338 c 3
EndSplineSet
EndChar

StartChar: cent
Encoding: 162 162 116
Width: 458
VWidth: 838
Flags: W
HStem: -6 59<187 235 270 334.803> 395 57<172.354 235 270 316.942>
VStem: 35 86<127.376 323.01> 235 35<-109 -8 56 395 451.481 562> 322 87<313.541 391.578>
LayerCount: 2
Back
SplineSet
269.619140625 452.69921875 m 5
 291.415039062 452.139648438 311.815429688 449.20703125 330.818359375 443.897460938 c 4
 349.8203125 438.588867188 366.16796875 431.462890625 379.860351562 422.51953125 c 4
 393.552734375 413.578125 404.310546875 403.239257812 412.134765625 391.501953125 c 4
 419.959960938 379.765625 423.872070312 367.190429688 423.872070312 353.776367188 c 4
 423.872070312 339.24609375 420.518554688 327.649414062 413.811523438 318.987304688 c 4
 407.104492188 310.325195312 397.604492188 305.993164062 385.30859375 305.993164062 c 4
 370.778320312 305.993164062 359.600585938 310.325195312 351.776367188 318.987304688 c 4
 343.952148438 327.649414062 338.643554688 340.922851562 335.849609375 358.806640625 c 4
 332.49609375 380.043945312 325.370117188 395.83203125 314.471679688 406.172851562 c 4
 303.573242188 416.51171875 288.623046875 422.798828125 269.62109375 425.034179688 c 5
 269.62109375 52.8154296875 l 5
 295.888671875 52.8154296875 320.060546875 57.845703125 342.135742188 67.9052734375 c 4
 364.211914062 77.9658203125 382.794921875 93.3349609375 397.884765625 114.013671875 c 6
 407.10546875 126.588867188 l 5
 423.034179688 118.205078125 l 5
 418.842773438 107.306640625 l 6
 405.98828125 73.7744140625 386.708007812 47.2265625 360.998046875 27.666015625 c 4
 335.2890625 8.10546875 304.830078125 -3.3525390625 269.620117188 -6.7060546875 c 5
 269.620117188 -108.982421875 l 5
 234.41015625 -108.982421875 l 5
 234.41015625 -7.5439453125 l 5
 205.907226562 -5.8671875 179.778320312 0.69921875 156.025390625 12.1572265625 c 4
 132.274414062 23.61328125 112.013671875 39.123046875 95.2470703125 58.68359375 c 4
 78.48046875 78.2451171875 65.345703125 101.438476562 55.845703125 128.265625 c 4
 46.3447265625 155.092773438 41.59375 184.43359375 41.59375 216.291015625 c 4
 41.59375 248.146484375 46.2041015625 277.627929688 55.4267578125 304.733398438 c 4
 64.6484375 331.83984375 77.7822265625 355.591796875 94.8271484375 375.991210938 c 4
 111.874023438 396.390625 132.2734375 413.157226562 156.024414062 426.291015625 c 4
 179.77734375 439.42578125 205.90625 447.668945312 234.409179688 451.022460938 c 5
 234.409179688 561.681640625 l 5
 269.619140625 561.681640625 l 5
 269.619140625 452.69921875 l 5
127.103515625 233.057617188 m 4
 127.103515625 183.875 136.325195312 144.194335938 154.768554688 114.013671875 c 4
 173.2109375 83.833984375 199.7578125 64.8310546875 234.409179688 57.0068359375 c 5
 234.409179688 424.196289062 l 5
 219.877929688 421.40234375 206.185546875 414.8359375 193.33203125 404.497070312 c 4
 180.477539062 394.15625 169.16015625 380.744140625 159.37890625 364.255859375 c 4
 149.598632812 347.76953125 141.774414062 328.487304688 135.90625 306.411132812 c 4
 130.038085938 284.3359375 127.103515625 259.883789062 127.103515625 233.057617188 c 4
EndSplineSet
Fore
SplineSet
409 354 m 0
 409 327 397 306 371 306 c 0
 342 306 326 324 322 359 c 0
 319 392 299 395 270 396 c 1
 270 53 l 1
 326 54 367 79 392 114 c 2
 401 126 l 1
 418 118 l 1
 413 108 l 2
 390 48 342 4 270 -6 c 1
 270 -109 l 1
 235 -109 l 1
 235 -8 l 1
 115 -5 35 89 35 216 c 0
 35 346 116 441 235 452 c 1
 235 562 l 1
 270 562 l 1
 270 453 l 1
 337 449 409 413 409 354 c 0
235 395 m 1
 148 387 121 330 121 233 c 0
 121 140 157 70 235 56 c 1
 235 395 l 1
EndSplineSet
Validated: 1
EndChar

StartChar: sterling
Encoding: 163 163 117
Width: 563
VWidth: 838
Flags: W
HStem: -8 81<283.461 447.436> -7 36<70.5392 135.604> 87 37<72.5143 154.485> 270 37<107 200 306 457> 589 61<357.594 425.857>
VStem: 25 44<29.5813 83.0058> 477 29<111.421 136>
LayerCount: 2
Fore
SplineSet
25 51 m 0x7e
 25 98 67 124 116 124 c 0
 132 124 149 122 169 117 c 1
 181 167 191 212 200 270 c 1
 107 270 l 1
 107 307 l 1
 207 307 l 1
 226 405 l 2
 243 489 267 551 298 590 c 0
 329 629 368 650 416 650 c 0
 465 650 518 629 518 586 c 0
 518 558 496 538 469 538 c 0
 443 538 432 556 423 574 c 0
 417 588 411 589 394 589 c 0
 374 589 362 584 355 562 c 0
 338 502 328 442 315 361 c 2
 306 307 l 1
 457 307 l 1
 457 270 l 1
 299 270 l 1
 283 204 268 150 243 97 c 1
 278 81 317 73 359 73 c 0
 425 73 465 94 477 136 c 1
 506 136 l 1
 506 45 461 -8 371 -8 c 0xbe
 324 -8 294 6 262 26 c 0
 250 33 234 44 218 56 c 1
 189 23 151 -7 98 -7 c 0
 57 -7 25 12 25 51 c 0x7e
69 55 m 0
 69 39 80 29 97 29 c 0x7e
 126 29 146 53 155 78 c 1
 143 84 133 87 116 87 c 0
 90 87 69 80 69 55 c 0
EndSplineSet
Validated: 1
EndChar

StartChar: currency
Encoding: 164 164 118
Width: 533
VWidth: 838
Flags: W
HStem: 127 54<198.21 335.816> 434 54<197.853 336.482>
VStem: 87 58<235.09 380.407> 389 58<235.101 380.927>
LayerCount: 2
Back
SplineSet
105.791015625 106.467773438 m 5
 65.5517578125 146.70703125 l 5
 121.719726562 202.037109375 l 5
 98.24609375 230.540039062 86.509765625 266.029296875 86.509765625 308.504882812 c 4
 86.509765625 348.744140625 98.24609375 383.955078125 121.719726562 414.133789062 c 5
 65.5517578125 468.626953125 l 5
 105.791015625 508.866210938 l 5
 161.12109375 452.698242188 l 5
 190.741210938 476.170898438 225.952148438 487.907226562 266.750976562 487.907226562 c 4
 305.313476562 487.907226562 340.802734375 476.450195312 373.21875 453.536132812 c 5
 427.709960938 508.866210938 l 5
 467.950195312 468.626953125 l 5
 411.78125 413.295898438 l 5
 435.254882812 383.67578125 446.9921875 348.744140625 446.9921875 308.504882812 c 4
 446.9921875 268.82421875 435.534179688 233.3359375 412.620117188 202.038085938 c 5
 467.950195312 146.708007812 l 5
 427.709960938 106.467773438 l 5
 372.380859375 162.635742188 l 5
 342.759765625 139.163085938 307.549804688 127.426757812 266.750976562 127.426757812 c 4
 226.510742188 127.426757812 191.30078125 139.163085938 161.12109375 162.635742188 c 5
 105.791015625 106.467773438 l 5
266.750976562 181.078125 m 4
 283.516601562 181.078125 299.166992188 184.431640625 313.697265625 191.138671875 c 4
 328.228515625 197.845703125 341.08203125 206.926757812 352.259765625 218.383789062 c 4
 363.4375 229.841796875 372.239257812 243.254882812 378.666992188 258.624023438 c 4
 385.094726562 273.993164062 388.30859375 290.340820312 388.30859375 307.666015625 c 4
 388.30859375 324.9921875 385.094726562 341.33984375 378.666992188 356.708984375 c 4
 372.239257812 372.078125 363.4375 385.491210938 352.259765625 396.94921875 c 4
 341.08203125 408.40625 328.228515625 417.487304688 313.697265625 424.194335938 c 4
 299.166992188 430.901367188 283.516601562 434.254882812 266.750976562 434.254882812 c 4
 249.984375 434.254882812 234.3359375 430.901367188 219.8046875 424.194335938 c 4
 205.2734375 417.487304688 192.418945312 408.40625 181.2421875 396.94921875 c 4
 170.064453125 385.491210938 161.26171875 372.217773438 154.834960938 357.127929688 c 4
 148.407226562 342.0390625 145.194335938 325.830078125 145.194335938 308.504882812 c 4
 145.194335938 291.1796875 148.407226562 274.83203125 154.834960938 259.462890625 c 4
 161.26171875 244.09375 170.064453125 230.540039062 181.2421875 218.802734375 c 4
 192.418945312 207.067382812 205.2734375 197.845703125 219.8046875 191.138671875 c 4
 234.3359375 184.431640625 249.984375 181.078125 266.750976562 181.078125 c 4
EndSplineSet
Fore
SplineSet
105 106 m 1
 65 147 l 1
 122 202 l 1
 98 231 87 266 87 308 c 3
 87 348 98 385 122 415 c 1
 65 468 l 1
 105 509 l 1
 161 453 l 1
 190 477 226 488 267 488 c 3
 305 488 340 477 373 454 c 1
 428 509 l 1
 468 468 l 1
 411 413 l 1
 435 384 447 348 447 308 c 3
 447 269 435 233 412 202 c 1
 468 147 l 1
 428 106 l 1
 372 162 l 1
 343 138 308 127 267 127 c 3
 227 127 191 138 161 162 c 1
 105 106 l 1
267 181 m 3
 337 181 389 238 389 308 c 3
 389 378 337 434 267 434 c 3
 197 434 145 377 145 308 c 3
 145 238 197 181 267 181 c 3
EndSplineSet
Validated: 1
EndChar

StartChar: yen
Encoding: 165 165 119
Width: 549
VWidth: 838
Flags: W
HStem: 0 20<154 189 357 392> 175 37<89 229 317 451> 277 36<89 213 332 451> 626 19<30 71.2873 224.609 263 333 379.711 483.754 519>
VStem: 229 88<35 175 212 277>
LayerCount: 2
Back
SplineSet
89.025390625 313.536132812 m 5
 213.09765625 313.537109375 l 5
 100.759765625 575.096679688 l 6
 96.2900390625 585.15625 92.09765625 593.260742188 88.185546875 599.407226562 c 4
 84.2734375 605.555664062 79.662109375 610.4453125 74.353515625 614.078125 c 4
 69.0439453125 617.7109375 62.896484375 620.365234375 55.91015625 622.041992188 c 4
 48.9248046875 623.71875 40.1220703125 625.116210938 29.50390625 626.233398438 c 5
 29.50390625 645.515625 l 5
 262.559570312 645.515625 l 5
 262.559570312 626.233398438 l 5
 241.322265625 622.321289062 226.091796875 617.850585938 216.870117188 612.8203125 c 4
 207.6484375 607.790039062 203.038085938 600.525390625 203.038085938 591.024414062 c 4
 203.038085938 583.19921875 205.552734375 573.418945312 210.583007812 561.682617188 c 6
 301.9609375 339.525390625 l 5
 305.313476562 339.525390625 l 5
 396.692382812 562.520507812 l 6
 400.045898438 571.463867188 401.72265625 579.567382812 401.72265625 586.833007812 c 4
 401.72265625 598.010742188 396.551757812 606.672851562 386.212890625 612.8203125 c 4
 375.874023438 618.967773438 358.12890625 623.439453125 332.979492188 626.233398438 c 5
 332.979492188 645.514648438 l 5
 519.088867188 645.514648438 l 5
 519.088867188 626.233398438 l 5
 505.674804688 623.439453125 494.498046875 620.504882812 485.5546875 617.430664062 c 4
 476.61328125 614.356445312 468.7890625 609.60546875 462.08203125 603.177734375 c 4
 455.375 596.750976562 448.947265625 587.948242188 442.80078125 576.770507812 c 4
 436.653320312 565.59375 429.946289062 551.0625 422.6796875 533.177734375 c 6
 332.140625 313.536132812 l 5
 450.345703125 313.536132812 l 5
 450.345703125 276.649414062 l 5
 317.05078125 276.649414062 l 5
 317.05078125 212.09765625 l 5
 450.345703125 212.09765625 l 5
 450.345703125 175.2109375 l 5
 317.05078125 175.2109375 l 5
 317.05078125 35.208984375 l 5
 391.662109375 19.2822265625 l 5
 391.662109375 0 l 5
 153.576171875 0 l 5
 153.576171875 19.2822265625 l 5
 229.025390625 35.208984375 l 5
 229.025390625 175.2109375 l 5
 89.025390625 175.2109375 l 5
 89.025390625 212.09765625 l 5
 229.025390625 212.09765625 l 5
 229.025390625 276.649414062 l 5
 89.025390625 276.649414062 l 5
 89.025390625 313.536132812 l 5
EndSplineSet
Fore
SplineSet
390 606 m 3
 390 617 368 622 333 626 c 1
 333 645 l 1
 519 645 l 1
 519 626 l 1
 494 621 478 617 462 603 c 0
 443 586 434 562 423 533 c 2
 332 313 l 1
 451 313 l 1
 451 277 l 1
 317 277 l 1
 317 212 l 1
 451 212 l 1
 451 175 l 1
 317 175 l 1
 317 35 l 1
 392 20 l 1
 392 0 l 1
 154 0 l 1
 154 20 l 1
 229 35 l 1
 229 175 l 1
 89 175 l 1
 89 212 l 1
 229 212 l 1
 229 277 l 1
 89 277 l 1
 89 313 l 1
 213 313 l 1
 101 575 l 2
 91 599 82 616 57 622 c 0
 50 624 41 625 30 626 c 1
 30 645 l 1
 263 645 l 1
 263 626 l 1
 242 622 225 618 217 613 c 0
 207 608 203 600 203 591 c 0
 203 584 206 572 211 561 c 2
 291 366 l 1
 295 366 l 1
 386 588 l 2
 389 597 390 599 390 606 c 3
EndSplineSet
Validated: 1
EndChar

StartChar: section
Encoding: 167 167 120
Width: 456
VWidth: 0
Flags: W
HStem: -132 52<148.67 304.168> 643 53<147.93 302.392>
VStem: 55 77<250.494 347.946> 59 66<-56.7085 3.39807 522.685 619.519> 332 65<-54.726 50.9255 214.861 309.714>
LayerCount: 2
Back
SplineSet
240.762695312 695.814453125 m 4
 263.119140625 695.814453125 283.798828125 693.71875 302.80078125 689.52734375 c 4
 321.8046875 685.334960938 338.291015625 679.466796875 352.264648438 671.921875 c 4
 366.236328125 664.376953125 376.994140625 655.294921875 384.540039062 644.676757812 c 4
 392.084960938 634.056640625 395.857421875 622.599609375 395.857421875 610.303710938 c 4
 395.857421875 597.44921875 392.084960938 586.831054688 384.540039062 578.447265625 c 4
 376.994140625 570.064453125 366.794921875 565.872070312 353.940429688 565.872070312 c 4
 341.0859375 565.872070312 331.724609375 570.483398438 325.856445312 579.705078125 c 4
 319.98828125 588.926757812 313.700195312 601.919921875 306.994140625 618.6875 c 4
 303.08203125 628.1875 299.029296875 636.15234375 294.837890625 642.580078125 c 4
 290.647460938 649.006835938 285.755859375 654.176757812 280.16796875 658.08984375 c 4
 274.578125 662.001953125 267.87109375 664.795898438 260.047851562 666.47265625 c 4
 252.223632812 668.149414062 243.001953125 668.987304688 232.381835938 668.987304688 c 4
 198.290039062 668.987304688 171.8828125 661.442382812 153.16015625 646.353515625 c 4
 134.438476562 631.262695312 125.076171875 609.74609375 125.076171875 581.801757812 c 4
 125.076171875 557.768554688 131.922851562 538.208007812 145.615234375 523.119140625 c 4
 159.307617188 508.028320312 176.353515625 495.034179688 196.752929688 484.135742188 c 4
 217.151367188 473.237304688 239.227539062 463.038085938 262.98046875 453.537109375 c 4
 286.732421875 444.036132812 308.80859375 432.71875 329.20703125 419.583984375 c 4
 349.606445312 406.450195312 366.65234375 390.243164062 380.344726562 370.9609375 c 4
 394.037109375 351.6796875 400.883789062 326.94921875 400.883789062 296.768554688 c 4
 400.883789062 265.471679688 393.478515625 237.806640625 378.66796875 213.774414062 c 4
 363.857421875 189.741210938 343.318359375 171.01953125 317.05078125 157.60546875 c 5
 339.40625 143.633789062 358.268554688 126.30859375 373.637695312 105.62890625 c 4
 389.006835938 84.9501953125 396.692382812 57.564453125 396.692382812 23.4716796875 c 4
 396.692382812 -25.15234375 380.344726562 -63.2958984375 347.649414062 -90.9609375 c 4
 314.955078125 -118.625 269.82421875 -132.458007812 212.259765625 -132.458007812 c 4
 189.345703125 -132.458007812 168.247070312 -130.221679688 148.965820312 -125.750976562 c 4
 129.68359375 -121.280273438 113.057617188 -114.852539062 99.083984375 -106.469726562 c 4
 85.1123046875 -98.0859375 74.2138671875 -88.166015625 66.3896484375 -76.708984375 c 4
 58.5654296875 -65.2509765625 54.6533203125 -52.81640625 54.6533203125 -39.40234375 c 4
 54.6533203125 -25.990234375 58.42578125 -15.091796875 65.970703125 -6.7080078125 c 4
 73.515625 1.6748046875 83.71484375 5.8671875 96.5693359375 5.8671875 c 4
 108.865234375 5.8671875 117.947265625 1.53515625 123.815429688 -7.1279296875 c 4
 129.68359375 -15.7900390625 135.971679688 -29.0625 142.677734375 -46.947265625 c 4
 146.03125 -55.330078125 149.6640625 -63.154296875 153.576171875 -70.4208984375 c 4
 157.48828125 -77.685546875 162.377929688 -83.9736328125 168.247070312 -89.283203125 c 4
 174.115234375 -94.5927734375 181.66015625 -98.6435546875 190.881835938 -101.4375 c 4
 200.103515625 -104.232421875 211.700195312 -105.62890625 225.671875 -105.62890625 c 4
 259.206054688 -105.62890625 285.333984375 -97.38671875 304.056640625 -80.8994140625 c 4
 322.778320312 -64.4111328125 332.140625 -41.63671875 332.140625 -12.57421875 c 4
 332.140625 13.1357421875 325.293945312 33.953125 311.6015625 49.880859375 c 4
 297.909179688 65.8095703125 280.72265625 79.501953125 260.043945312 90.9599609375 c 4
 239.365234375 102.416992188 217.149414062 112.896484375 193.396484375 122.397460938 c 4
 169.64453125 131.897460938 147.428710938 142.936523438 126.75 155.51171875 c 4
 106.071289062 168.0859375 88.884765625 183.455078125 75.1923828125 201.619140625 c 4
 61.5 219.783203125 54.6533203125 243.397460938 54.6533203125 272.458984375 c 4
 54.6533203125 304.875 63.875 332.819335938 82.318359375 356.291992188 c 4
 100.760742188 379.765625 126.470703125 397.090820312 159.444335938 408.26953125 c 5
 146.03125 415.534179688 133.177734375 423.499023438 120.880859375 432.161132812 c 4
 108.5859375 440.823242188 97.8271484375 450.744140625 88.60546875 461.920898438 c 4
 79.3837890625 473.098632812 72.1181640625 485.953125 66.80859375 500.483398438 c 4
 61.5 515.013671875 58.8447265625 531.501953125 58.8447265625 549.944335938 c 4
 58.8447265625 595.213867188 74.9140625 630.84375 107.048828125 656.833007812 c 4
 139.184570312 682.8203125 183.755859375 695.814453125 240.762695312 695.814453125 c 4
336.333984375 262.397460938 m 4
 336.333984375 279.165039062 332.420898438 293.696289062 324.59765625 305.991210938 c 4
 316.7734375 318.288085938 306.154296875 329.46484375 292.740234375 339.525390625 c 4
 279.328125 349.583984375 264.09765625 358.666992188 247.051757812 366.770507812 c 4
 230.005859375 374.875 212.26171875 383.118164062 193.817382812 391.500976562 c 5
 172.020507812 385.354492188 154.416992188 374.315429688 141.002929688 358.38671875 c 4
 127.58984375 342.458984375 120.8828125 323.875 120.8828125 302.637695312 c 4
 120.8828125 284.194335938 125.772460938 268.825195312 135.553710938 256.530273438 c 4
 145.333984375 244.233398438 158.049804688 233.475585938 173.698242188 224.25390625 c 4
 189.34765625 215.033203125 206.8125 206.7890625 226.09375 199.5234375 c 4
 245.375976562 192.2578125 264.517578125 184.154296875 283.520507812 175.2109375 c 5
 299.727539062 184.154296875 312.58203125 196.169921875 322.08203125 211.259765625 c 4
 331.583007812 226.348632812 336.333984375 243.39453125 336.333984375 262.397460938 c 4
EndSplineSet
Fore
SplineSet
59 550 m 7xd8
 59 649 137 696 241 696 c 7
 302 696 360 680 385 645 c 4
 392 634 396 622 396 610 c 4
 396 585 379 565 353 565 c 7
 296 565 347 643 233 643 c 7
 170 643 125 619 125 582 c 7xd8
 125 557 133 539 146 523 c 4
 190 473 272 457 330 420 c 4
 368 395 401 360 401 297 c 7
 401 229 365 182 317 157 c 5
 340 143 357 126 373 105 c 4
 389 84 397 58 397 24 c 7
 397 -79 320 -132 212 -132 c 7
 148 -132 92 -115 66 -78 c 4
 59 -67 55 -52 55 -39 c 4
 55 -13 70 6 96 6 c 4
 108 6 117 1 123 -7 c 4
 152 -49 128 -80 225 -80 c 7
 288 -80 332 -52 332 -12 c 7
 332 14 324 35 311 51 c 4
 267 102 187 120 127 156 c 4
 89 180 55 212 55 273 c 7xe8
 55 346 101 388 159 408 c 5
 108 436 59 471 59 550 c 7xd8
278 186 m 5
 304 200 326 228 326 265 c 7
 326 298 307 318 286 334 c 4
 261 354 228 366 197 380 c 5
 163 370 132 343 132 301 c 7xe8
 132 264 155 245 180 231 c 4
 209 213 245 202 278 186 c 5
EndSplineSet
Validated: 1
EndChar

StartChar: brokenbar
Encoding: 166 166 121
Width: 217
VWidth: 838
Flags: W
VStem: 80 57<-144 181 362 686>
LayerCount: 2
Fore
SplineSet
80 362 m 1
 80 686 l 1
 137 686 l 1
 137 362 l 1
 80 362 l 1
80 -144 m 1
 80 181 l 1
 137 181 l 1
 137 -144 l 1
 80 -144 l 1
EndSplineSet
Validated: 1
EndChar

StartChar: uni00AD
Encoding: 173 173 122
Width: 388
VWidth: 838
Flags: W
HStem: 176 70<60 328>
VStem: 60 268<176 246>
LayerCount: 2
Fore
SplineSet
60 176 m 5
 60 246 l 5
 328 246 l 5
 328 176 l 5
 60 176 l 5
EndSplineSet
Validated: 1
EndChar

StartChar: logicalnot
Encoding: 172 172 123
Width: 475
VWidth: 838
Flags: W
HStem: 221 37<70 371>
VStem: 371 44<123 221>
LayerCount: 2
Fore
SplineSet
371 221 m 5
 70 221 l 5
 70 258 l 5
 415 258 l 5
 415 123 l 5
 371 123 l 5
 371 221 l 5
EndSplineSet
Validated: 1
EndChar

StartChar: paragraph
Encoding: 182 182 124
Width: 458
VWidth: 838
Flags: W
HStem: 599 46<284 334> 624 21<412 438>
VStem: 25 259<375.463 556.266> 233 51<-91 285> 334 52<-91 599>
LayerCount: 2
Back
SplineSet
245.46875 -90.5400390625 m 5
 245.46875 285.029296875 l 5
 198.522460938 285.029296875 l 6
 171.696289062 285.029296875 147.6640625 289.78125 126.426757812 299.28125 c 4
 105.188476562 308.782226562 87.025390625 321.776367188 71.9345703125 338.264648438 c 4
 56.8447265625 354.751953125 45.248046875 373.75390625 37.1435546875 395.271484375 c 4
 29.0400390625 416.7890625 24.98828125 439.842773438 24.98828125 464.43359375 c 4
 24.98828125 491.819335938 29.458984375 516.690429688 38.4013671875 539.045898438 c 4
 47.34375 561.40234375 60.1982421875 580.404296875 76.96484375 596.053710938 c 4
 93.73046875 611.702148438 114.129882812 623.858398438 138.163085938 632.520507812 c 4
 162.1953125 641.182617188 189.30078125 645.514648438 219.48046875 645.514648438 c 6
 438.28515625 645.514648438 l 5
 438.28515625 624.556640625 l 5
 372.895507812 610.3046875 l 5
 372.895507812 -90.5400390625 l 5
 334.333007812 -90.5400390625 l 5
 334.333007812 611.981445312 l 5
 284.032226562 611.981445312 l 5
 284.032226562 -90.5400390625 l 5
 245.46875 -90.5400390625 l 5
EndSplineSet
Fore
SplineSet
233 -91 m 1x98
 233 285 l 1x98
 199 285 l 2
 114 285 60 334 37 395 c 0
 29 417 25 439 25 464 c 0
 25 554 72 608 139 632 c 0
 164 641 189 645 219 645 c 2
 438 645 l 1
 438 624 l 1x68
 386 610 l 1
 386 -91 l 1
 334 -91 l 1
 334 599 l 1
 284 599 l 1
 284 -91 l 1
 233 -91 l 1x98
EndSplineSet
Validated: 1
EndChar

StartChar: cedilla
Encoding: 184 184 125
Width: 192
VWidth: 838
Flags: W
HStem: -215 31<17.638 110.803> -104 55<88 119.556>
VStem: 122 62<-175.873 -107.413>
LayerCount: 2
Fore
SplineSet
184 -131 m 0
 184 -187 133 -215 73 -215 c 0
 47 -215 22 -206 8 -195 c 1
 20 -171 l 1
 36 -180 45 -184 67 -184 c 0
 97 -184 122 -170 122 -141 c 0
 122 -116 109 -104 82 -104 c 0
 68 -104 52 -108 38 -112 c 1
 31 -104 l 1
 82 14 l 1
 113 14 l 1
 88 -49 l 1
 143 -49 184 -79 184 -131 c 0
EndSplineSet
Validated: 1
EndChar

StartChar: guillemotleft
Encoding: 171 171 126
Width: 367
VWidth: 838
Flags: W
HStem: 44 322
VStem: 50 255
LayerCount: 2
Fore
SplineSet
166 44 m 1
 50 197 l 1
 50 214 l 1
 164 366 l 1
 175 362 l 1
 119 207 l 1
 176 51 l 1
 166 44 l 1
297 44 m 1
 181 197 l 1
 181 214 l 1
 296 366 l 1
 305 362 l 1
 250 207 l 1
 307 51 l 1
 297 44 l 1
EndSplineSet
Validated: 1
EndChar

StartChar: exclamdown
Encoding: 161 161 127
Width: 180
VWidth: 838
Flags: HMWO
LayerCount: 2
Fore
SplineSet
74 540 m 5
 68 442 59 343 49 254 c 4
 41 183 30 114 30 56 c 4
 30 18 51 -10 90 -10 c 4
 130 -10 150 18 150 56 c 4
 150 113 138 181 130 250 c 4
 120 340 110 441 104 540 c 5
 74 540 l 5
89 695 m 7
 59 695 34 669 34 640 c 7
 34 608 57 585 89 585 c 7
 122 585 144 607 144 640 c 7
 144 671 121 695 89 695 c 7
EndSplineSet
EndChar

StartChar: mu
Encoding: 181 181 128
Width: 479
VWidth: 838
Flags: W
HStem: -8 45<166.827 274.171> 424 20G<70 149 326 406>
VStem: 70 79<54.6397 444> 70 52<-146 4> 326 80<86.869 444>
LayerCount: 2
Back
SplineSet
336.61328125 -8.3837890625 m 5
 330.745117188 -8.3837890625 l 5
 330.745117188 50.2998046875 l 5
 327.391601562 51.1376953125 l 5
 293.859375 9.2216796875 245.236328125 -8.3837890625 177.331054688 -8.3837890625 c 4
 115.294921875 -8.3837890625 77.5693359375 24.3115234375 71.7021484375 81.318359375 c 4
 70.025390625 100.599609375 70.025390625 119.04296875 70.025390625 141.677734375 c 6
 70.025390625 414.973632812 l 5
 7.150390625 427.548828125 l 5
 7.150390625 444.315429688 l 5
 149.666015625 444.315429688 l 5
 149.666015625 161.797851562 l 6
 149.666015625 90.5400390625 150.50390625 36.8857421875 218.409179688 36.8857421875 c 4
 266.193359375 36.8857421875 301.404296875 82.9951171875 325.715820312 113.174804688 c 5
 325.715820312 314.374023438 l 4
 325.715820312 414.973632812 l 5
 262.840820312 427.548828125 l 5
 262.840820312 444.315429688 l 5
 405.356445312 444.315429688 l 5
 405.356445312 62.875 l 5
 469.0703125 43.5927734375 l 5
 469.0703125 31.857421875 l 5
 391.104492188 16.7666015625 368.470703125 7.544921875 336.61328125 -8.3837890625 c 5
EndSplineSet
Fore
SplineSet
73 -146 m 25xd8
 70 142 l 2
 70 444 l 1
 149 444 l 1
 149 162 l 2xe8
 149 91 151 37 219 37 c 0
 267 37 301 83 326 113 c 1
 326 314 l 1
 326 444 l 1
 406 444 l 1
 406 63 l 1
 469 43 l 1
 469 32 l 1
 391 16 369 8 337 -8 c 1
 330 -8 l 1
 330 51 l 1
 327 51 l 1
 294 9 241 -8 189 -8 c 3
 157 -8 142 -7 122 4 c 1
 122 -146 l 25
 73 -146 l 25xd8
EndSplineSet
Validated: 1
EndChar

StartChar: guillemotright
Encoding: 187 187 129
Width: 367
VWidth: 838
Flags: W
HStem: 44 322
VStem: 60 257
LayerCount: 2
Fore
SplineSet
190 51 m 5
 247 207 l 5
 192 362 l 5
 202 366 l 5
 317 214 l 5
 317 197 l 5
 201 44 l 5
 190 51 l 5
60 51 m 5
 117 207 l 5
 61 362 l 5
 71 366 l 5
 186 214 l 5
 186 197 l 5
 69 44 l 5
 60 51 l 5
EndSplineSet
Validated: 1
EndChar

StartChar: questiondown
Encoding: 191 191 130
Width: 362
VWidth: 838
Flags: W
HStem: -8 52<133.462 248.948> 497 109<154.088 242.551>
VStem: 37 75<65.8218 200.084> 144 109<507.449 595.154> 181 35<297.806 405> 259 67<56.9225 142.694>
LayerCount: 2
Fore
SplineSet
200 606 m 7xf4
 233 606 253 584 253 552 c 7
 253 520 230 497 198 497 c 7
 166 497 144 520 144 552 c 7
 144 584 168 606 200 606 c 7xf4
259 88 m 4
 259 113 250 106 250 130 c 4
 250 150 274 159 290 159 c 4
 303 159 326 152 326 123 c 4
 326 51 257 -8 179 -8 c 4
 93 -8 37 57 37 133 c 7
 37 199 90 236 129 265 c 4
 169 294 181 311 181 368 c 6
 181 405 l 29
 216 405 l 29
 216 366 l 6xec
 216 330 212 282 157 232 c 4
 124 201 112 175 112 136 c 7
 112 81 135 44 183 44 c 4
 231 44 259 63 259 88 c 4
EndSplineSet
Validated: 1
EndChar

StartChar: registered
Encoding: 174 174 131
Width: 576
VWidth: 838
Flags: W
HStem: 190 26<216.924 359.076> 298 7<190 218 254 292 371 409> 408 23<254 289> 535 21<254 326.5> 548 8<190 218> 628 26<216.738 359.262>
VStem: 55 31<341.427 504.494> 218 36<312 408 431 535> 342 38<442.972 526.958> 490 31<341.427 504.294>
LayerCount: 2
Back
SplineSet
190.139648438 555.813476562 m 1
 289.0625 555.813476562 l 2
 317.565429688 555.813476562 340.620117188 549.666992188 358.224609375 537.370117188 c 0
 375.830078125 525.075195312 384.631835938 507.19140625 384.631835938 483.717773438 c 0
 384.631835938 466.391601562 379.461914062 452.418945312 369.123046875 441.80078125 c 0
 358.784179688 431.180664062 344.391601562 423.63671875 325.94921875 419.165039062 c 1
 382.956054688 314.374023438 l 1
 408.104492188 307.666992188 l 1
 408.104492188 297.607421875 l 1
 336.009765625 297.607421875 l 1
 276.48828125 414.973632812 l 1
 257.206054688 414.973632812 l 1
 257.206054688 314.374023438 l 1
 287.385742188 307.666992188 l 1
 287.385742188 297.607421875 l 1
 190.139648438 297.607421875 l 1
 190.139648438 307.666992188 l 1
 211.936523438 314.374023438 l 1
 211.936523438 538.208007812 l 1
 190.139648438 544.915039062 l 1
 190.139648438 555.813476562 l 1
257.206054688 432.579101562 m 1
 279.002929688 432.579101562 297.306640625 436.4921875 312.116210938 444.31640625 c 0
 326.926757812 452.139648438 334.333007812 465.83203125 334.333007812 485.393554688 c 0
 334.333007812 502.719726562 328.463867188 515.853515625 316.727539062 524.795898438 c 0
 304.990234375 533.73828125 285.150390625 538.208984375 257.206054688 538.208984375 c 1
 257.206054688 432.579101562 l 1
EndSplineSet
Fore
SplineSet
380 482 m 3xf7c0
 380 445 361 420 329 413 c 1
 371 312 l 1
 409 305 l 1
 409 298 l 1
 337 298 l 1
 289 408 l 1
 254 408 l 1
 254 312 l 1
 292 305 l 1
 292 298 l 1
 190 298 l 1
 190 305 l 1
 218 312 l 1
 218 542 l 1
 190 548 l 1
 190 556 l 1xefc0
 291 556 l 2
 331 556 361 541 374 514 c 0
 378 505 380 493 380 482 c 3xf7c0
276 431 m 2
 318 431 342 446 342 486 c 3
 342 525 321 535 281 535 c 2
 254 535 l 1xf7c0
 254 431 l 1
 276 431 l 2
55 423 m 3
 55 556 155 654 288 654 c 3
 421 654 521 555 521 423 c 3
 521 291 420 190 288 190 c 3
 156 190 55 291 55 423 c 3
86 423 m 3
 86 306 171 216 288 216 c 3
 405 216 490 306 490 423 c 3
 490 540 405 628 288 628 c 3
 171 628 86 540 86 423 c 3
EndSplineSet
Validated: 1
EndChar

StartChar: copyright
Encoding: 169 169 132
Width: 755
VWidth: 0
Flags: W
HStem: -8 37<275.44 478.421> 126 32<314.96 443.184> 494 30<316.975 444.669> 616 38<275.626 478.606>
VStem: 45 43<214.072 431.858> 187 64<222.285 424.406> 501 15<235.688 264 403 420.603> 666 44<206.871 435.185>
LayerCount: 2
Back
SplineSet
191.654296875 322.7578125 m 0
 191.654296875 351.259765625 196.262695312 377.393554688 205.484375 401.145507812 c 0
 214.706054688 424.8984375 227.420898438 445.296875 243.62890625 462.342773438 c 0
 259.8359375 479.388671875 279.118164062 492.801757812 301.473632812 502.58203125 c 0
 323.829101562 512.36328125 348.140625 517.25390625 374.408203125 517.25390625 c 0
 412.970703125 517.25390625 447.342773438 506.076171875 477.522460938 483.719726562 c 1
 480.875976562 483.719726562 l 1
 500.99609375 515.577148438 l 1
 512.732421875 515.577148438 l 1
 512.732421875 395.6953125 l 1
 494.2890625 395.6953125 l 1
 491.495117188 405.196289062 488.700195312 413.020507812 485.90625 419.166992188 c 0
 483.112304688 425.315429688 479.759765625 431.462890625 475.846679688 437.610351562 c 0
 465.227539062 455.494140625 452.79296875 468.348632812 438.541015625 476.171875 c 0
 424.2890625 483.997070312 407.3828125 487.909179688 387.822265625 487.909179688 c 0
 349.258789062 487.909179688 320.196289062 474.076171875 300.635742188 446.412109375 c 0
 281.075195312 418.747070312 271.294921875 379.205078125 271.294921875 327.788085938 c 0
 271.294921875 275.252929688 281.21484375 234.733398438 301.0546875 206.23046875 c 0
 320.895507812 177.7265625 349.258789062 163.474609375 386.145507812 163.474609375 c 0
 421.915039062 163.474609375 450.138671875 178.286132812 470.817382812 207.907226562 c 0
 476.407226562 215.731445312 481.296875 224.953125 485.48828125 235.571289062 c 0
 489.6796875 246.19140625 493.173828125 257.927734375 495.967773438 270.782226562 c 1
 512.734375 270.782226562 l 1
 512.734375 135.810546875 l 1
 500.998046875 135.810546875 l 1
 479.201171875 174.373046875 l 1
 462.993164062 160.959960938 446.645507812 151.040039062 430.158203125 144.61328125 c 0
 413.671875 138.185546875 394.80859375 134.97265625 373.571289062 134.97265625 c 0
 346.744140625 134.97265625 322.29296875 139.583007812 300.216796875 148.8046875 c 0
 278.141601562 158.025390625 259 170.880859375 242.791992188 187.368164062 c 0
 226.584960938 203.854492188 214.009765625 223.555664062 205.068359375 246.469726562 c 0
 196.125 269.383789062 191.654296875 294.813476562 191.654296875 322.7578125 c 0
EndSplineSet
Fore
SplineSet
187 323 m 3
 187 440 257 524 372 524 c 3
 415 524 452 511 480 493 c 1
 482 493 l 1
 507 519 l 1
 516 519 l 1
 516 403 l 1
 501 403 l 1
 482 459 451 494 380 494 c 3
 286 494 251 426 251 326 c 3
 251 226 287 158 380 158 c 3
 453 158 490 200 501 264 c 1
 516 264 l 1
 516 131 l 1
 503 131 l 1
 481 165 l 1
 449 141 420 126 370 126 c 3
 256 126 187 208 187 323 c 3
45 323 m 3
 45 512 188 654 377 654 c 3
 567 654 710 512 710 323 c 3
 710 134 566 -8 377 -8 c 3
 187 -8 45 134 45 323 c 3
88 323 m 3
 88 157 211 29 377 29 c 3
 543 29 666 157 666 323 c 3
 666 489 543 616 377 616 c 3
 211 616 88 489 88 323 c 3
EndSplineSet
Validated: 1
EndChar

StartChar: ampersand
Encoding: 38 38 133
Width: 680
VWidth: 838
Flags: MW
LayerCount: 2
Back
SplineSet
232.217773438 361.3203125 m 5
 218.805664062 378.646484375 207.91015625 394.575195312 199.526367188 409.10546875 c 4
 191.143554688 423.637695312 184.716796875 437.049804688 180.245117188 449.346679688 c 4
 175.774414062 461.641601562 172.83984375 472.680664062 171.442382812 482.4609375 c 4
 170.045898438 492.2421875 169.346679688 501.044921875 169.346679688 508.868164062 c 4
 169.346679688 530.665039062 173.538085938 550.505859375 181.921875 568.389648438 c 4
 190.3046875 586.274414062 201.482421875 601.50390625 215.455078125 614.079101562 c 4
 229.427734375 626.653320312 245.775390625 636.434570312 264.497070312 643.420898438 c 4
 283.219726562 650.40625 302.641601562 653.900390625 322.76171875 653.900390625 c 4
 338.96875 653.900390625 354.337890625 651.6640625 368.868164062 647.193359375 c 4
 383.399414062 642.721679688 396.252929688 636.294921875 407.431640625 627.911132812 c 4
 418.609375 619.528320312 427.411132812 609.188476562 433.838867188 596.893554688 c 4
 440.266601562 584.59765625 443.479492188 570.625 443.479492188 554.975585938 c 4
 443.479492188 530.384765625 434.1171875 504.256835938 415.39453125 476.591796875 c 4
 396.672851562 448.926757812 364.397460938 418.607421875 318.568359375 385.6328125 c 5
 489.586914062 174.373046875 l 5
 504.118164062 199.5234375 515.435546875 225.232421875 523.540039062 251.5 c 4
 531.643554688 277.767578125 535.696289062 303.4765625 535.696289062 328.626953125 c 4
 535.696289062 335.891601562 534.997070312 341.62109375 533.600585938 345.8125 c 4
 532.202148438 350.00390625 528.708984375 353.63671875 523.120117188 356.709960938 c 4
 517.530273438 359.78515625 509.426757812 362.159179688 498.807617188 363.8359375 c 4
 488.188476562 365.512695312 473.377929688 367.469726562 454.375 369.704101562 c 5
 454.375 389.825195312 l 5
 668.149414062 389.825195312 l 5
 668.149414062 369.704101562 l 5
 649.70703125 368.028320312 634.895507812 366.072265625 623.717773438 363.8359375 c 4
 612.541015625 361.600585938 603.73828125 358.526367188 597.310546875 354.61328125 c 4
 590.8828125 350.702148438 586.272460938 345.671875 583.478515625 339.524414062 c 4
 580.68359375 333.375976562 578.168945312 325.551757812 575.93359375 316.051757812 c 4
 570.903320312 294.814453125 563.079101562 269.244140625 552.459960938 239.34375 c 4
 541.840820312 209.443359375 527.588867188 179.403320312 509.705078125 149.223632812 c 5
 596.053710938 42.7548828125 l 5
 668.149414062 19.2822265625 l 5
 668.149414062 0.0009765625 l 5
 522.280273438 0.0009765625 l 5
 458.567382812 78.8037109375 l 5
 441.80078125 60.3603515625 424.614257812 45.5498046875 407.009765625 34.3720703125 c 4
 389.405273438 23.1943359375 371.939453125 14.3916015625 354.61328125 7.96484375 c 4
 337.288085938 1.537109375 320.521484375 -2.7939453125 304.313476562 -5.0302734375 c 4
 288.106445312 -7.2666015625 272.458007812 -8.3837890625 257.3671875 -8.3837890625 c 4
 195.331054688 -8.3837890625 149.501953125 6.427734375 119.880859375 36.0478515625 c 4
 90.2607421875 65.6689453125 75.4501953125 103.953125 75.4501953125 150.900390625 c 4
 75.4501953125 171.01953125 78.244140625 189.603515625 83.8330078125 206.6484375 c 4
 89.421875 223.694335938 98.365234375 240.459960938 110.66015625 256.948242188 c 4
 122.956054688 273.435546875 139.1640625 290.0625 159.283203125 306.829101562 c 4
 179.403320312 323.595703125 203.715820312 341.759765625 232.217773438 361.3203125 c 5
162.640625 187.787109375 m 4
 162.640625 168.78515625 165.016601562 150.341796875 169.766601562 132.458007812 c 4
 174.517578125 114.57421875 182.203125 98.7861328125 192.821289062 85.09375 c 4
 203.44140625 71.4013671875 217.133789062 60.3623046875 233.899414062 51.978515625 c 4
 250.666015625 43.595703125 270.787109375 39.4033203125 294.260742188 39.4033203125 c 4
 303.760742188 39.4033203125 314.240234375 40.3818359375 325.697265625 42.337890625 c 4
 337.154296875 44.2939453125 349.03125 47.6474609375 361.326171875 52.3974609375 c 4
 373.623046875 57.1494140625 386.198242188 63.7158203125 399.051757812 72.0986328125 c 4
 411.90625 80.482421875 424.759765625 91.380859375 437.614257812 104.79296875 c 5
 249.828125 338.688476562 l 5
 231.944335938 325.274414062 217.2734375 312.001953125 205.81640625 298.8671875 c 4
 194.358398438 285.733398438 185.416015625 273.017578125 178.98828125 260.72265625 c 4
 172.561523438 248.426757812 168.229492188 236.130859375 165.993164062 223.834960938 c 4
 163.7578125 211.5390625 162.640625 199.5234375 162.640625 187.787109375 c 4
386.475585938 534.018554688 m 4
 386.475585938 563.638671875 378.930664062 585.994140625 363.840820312 601.083007812 c 4
 348.751953125 616.173828125 329.190429688 623.71875 305.158203125 623.71875 c 4
 283.919921875 623.71875 265.756835938 617.571289062 250.666015625 605.275390625 c 4
 235.576171875 592.979492188 228.032226562 573.418945312 228.032226562 546.591796875 c 4
 228.032226562 538.768554688 229.009765625 530.525390625 230.966796875 521.862304688 c 4
 232.921875 513.200195312 236.553710938 503.418945312 241.86328125 492.520507812 c 4
 247.172851562 481.622070312 254.578125 469.1875 264.078125 455.215820312 c 4
 273.579101562 441.2421875 285.875 425.03515625 300.96484375 406.592773438 c 5
 333.379882812 428.948242188 355.736328125 449.90625 368.032226562 469.466796875 c 4
 380.328125 489.028320312 386.475585938 510.544921875 386.475585938 534.018554688 c 4
EndSplineSet
Fore
SplineSet
257 -10 m 3
 144 -10 75 47 75 151 c 0
 75 246 122 321 215 385 c 1
 184 425 170 444 170 509 c 3
 170 579 212 625 265 645 c 0
 284 651 303 655 323 655 c 3
 388 655 443 620 443 555 c 3
 443 477 380 430 318 386 c 1
 465 205 l 1
 490 247 511 296 511 328 c 3
 511 353 489 364 455 370 c 1
 455 390 l 1
 668 390 l 1
 668 370 l 1
 614 365 587 363 576 316 c 0
 563 260 539 198 510 149 c 1
 596 42 l 1
 668 20 l 1
 668 0 l 1
 522 0 l 1
 459 79 l 1
 412 28 350 -10 257 -10 c 3
162 188 m 0
 162 101 194 60 282 60 c 3
 347 60 380 100 413 135 c 1
 250 339 l 1
 220 316 196 291 180 260 c 0
 169 239 162 217 162 188 c 0
305 607 m 3
 269 607 228 580 228 542 c 3
 228 509 258 460 283 429 c 1
 341 468 386 512 386 550 c 3
 386 583 357 607 305 607 c 3
EndSplineSet
EndChar

StartChar: f_f
Encoding: 64256 64256 134
Width: 567
VWidth: 838
Flags: HMW
LayerCount: 2
Back
SplineSet
382 584 m 3
 382 559 366 543 341 543 c 3
 281 543 321 615 259 615 c 3
 180 615 180 535 180 450 c 2
 180 445 l 1
 300 445 l 1
 300 405 l 1
 180 405 l 1
 180 30 l 1
 240 20 l 1
 240 0 l 1
 40 0 l 1
 40 20 l 1
 100 30 l 1
 100 405 l 1
 20 405 l 1
 35 445 l 1
 100 445 l 1
 100 498 l 2
 100 564 133 601 176 628 c 0
 202 644 236 655 275 655 c 3
 327 655 382 631 382 584 c 3
642 624 m 3
 642 599 626 583 601 583 c 3
 541 583 581 655 519 655 c 3
 440 655 440 575 440 490 c 2
 440 445 l 1
 560 445 l 1
 560 405 l 1
 440 405 l 1
 440 30 l 1
 500 20 l 1
 500 0 l 1
 300 0 l 1
 300 20 l 1
 360 30 l 1
 360 405 l 1
 280 405 l 1
 295 445 l 1
 360 445 l 1
 360 538 l 2
 360 604 393 641 436 668 c 0
 462 684 496 695 535 695 c 3
 587 695 642 671 642 624 c 3
EndSplineSet
Fore
SplineSet
642 624 m 0
 642 599 626 583 601 583 c 0
 541 583 581 655 519 655 c 0
 440 655 440 575 440 490 c 2
 440 445 l 1
 560 445 l 1
 560 405 l 1
 440 405 l 1
 440 30 l 1
 500 20 l 1
 500 0 l 1
 300 0 l 1
 300 20 l 1
 360 30 l 1
 360 405 l 5
 180 405 l 5
 180 30 l 5
 240 20 l 5
 240 0 l 5
 40 0 l 5
 40 20 l 5
 100 30 l 5
 100 405 l 5
 20 405 l 5
 35 445 l 5
 100 445 l 5
 100 498 l 6
 100 564 133 601 176 628 c 4
 202 644 236 655 275 655 c 4
 311 655 359 644 384 621 c 5
 397 640 416 655 436 668 c 0
 462 684 496 695 535 695 c 0
 587 695 642 671 642 624 c 0
360 445 m 5
 360 543 l 5
 301 544 342 615 259 615 c 4
 180 615 180 535 180 450 c 6
 180 445 l 5
 360 445 l 5
EndSplineSet
Validated: 1
LCarets2: 1 282
Ligature2: "'liga' standard ligatures-subtable" f f
EndChar

StartChar: f_i
Encoding: 64257 64257 135
Width: 525
VWidth: 838
Flags: HMW
LayerCount: 2
Back
SplineSet
382 624 m 7
 382 599 366 583 341 583 c 7
 281 583 321 655 259 655 c 7
 180 655 180 575 180 490 c 6
 180 445 l 5
 300 445 l 5
 300 405 l 5
 180 405 l 5
 180 30 l 5
 240 20 l 5
 240 0 l 5
 40 0 l 5
 40 20 l 5
 100 30 l 5
 100 405 l 5
 20 405 l 5
 35 445 l 5
 100 445 l 5
 100 538 l 6
 100 604 133 641 176 668 c 4
 202 684 236 695 275 695 c 7
 327 695 382 671 382 624 c 7
430 455 m 5
 440 455 l 5
 440 30 l 5
 500 20 l 5
 500 0 l 5
 300 0 l 5
 300 20 l 5
 360 30 l 5
 360 385 l 5
 300 405 l 5
 300 415 l 5
 380 430 400 440 430 455 c 5
400 544 m 7
 370 544 345 570 345 599 c 7
 345 631 368 654 400 654 c 7
 433 654 455 632 455 599 c 7
 455 568 432 544 400 544 c 7
EndSplineSet
Fore
SplineSet
430 485 m 1
 440 485 l 1
 440 30 l 1
 500 20 l 1
 500 0 l 1
 300 0 l 1
 300 20 l 1
 360 30 l 1
 360 385 l 1
 300 405 l 1
 180 405 l 1
 180 30 l 1
 240 20 l 1
 240 0 l 1
 40 0 l 1
 40 20 l 1
 100 30 l 1
 100 405 l 1
 20 405 l 1
 35 445 l 1
 100 445 l 1
 100 538 l 2
 100 604 133 641 176 668 c 0
 202 684 237 695 270 695 c 3
 354 695 441 671 441 624 c 0
 441 599 425 583 400 583 c 0
 340 583 373 655 270 655 c 3
 196 655 180 622 180 490 c 2
 180 445 l 1
 300 445 l 1
 380 460 400 470 430 485 c 1
EndSplineSet
Validated: 1
LCarets2: 1 270
Ligature2: "'liga' standard ligatures-subtable" f i
EndChar

StartChar: f_f_i
Encoding: 64259 64259 136
Width: 785
VWidth: 838
Flags: HMW
LayerCount: 2
Fore
SplineSet
690 485 m 1
 700 485 l 1
 700 30 l 1
 760 20 l 1
 760 0 l 1
 560 0 l 1
 560 20 l 1
 620 30 l 1
 620 385 l 1
 560 405 l 1
 440 405 l 1
 440 30 l 1
 500 20 l 1
 500 0 l 1
 300 0 l 1
 300 20 l 1
 360 30 l 1
 360 405 l 1
 180 405 l 1
 180 30 l 1
 240 20 l 1
 240 0 l 1
 40 0 l 1
 40 20 l 1
 100 30 l 1
 100 405 l 1
 20 405 l 1
 35 445 l 1
 100 445 l 1
 100 498 l 2
 100 564 133 601 176 628 c 0
 202 644 236 655 275 655 c 0
 311 655 359 644 384 621 c 1
 383.970827679 620.737449111 l 1
 397.417169903 640.10281386 415.58113787 655.178854012 436 668 c 0
 462 684 497 695 530 695 c 0
 614 695 701 671 701 624 c 0
 701 599 685 583 660 583 c 0
 600 583 633 655 530 655 c 0
 456 655 440 622 440 490 c 2
 440 445 l 1
 560 445 l 1
 640 460 660 470 690 485 c 1
  Spiro
    690 485 v
    700 485 v
    700 30 v
    760 20 v
    760 0 v
    560 0 v
    560 20 v
    620 30 v
    620 385 v
    560 405 v
    440 405 v
    440 30 v
    500 20 v
    500 0 v
    300 0 v
    300 20 v
    360 30 v
    360 405 v
    280 405 v
    180 405 v
    180 30 v
    240 20 v
    240 0 v
    40 0 v
    40 20 v
    100 30 v
    100 405 v
    20 405 v
    35 445 v
    100 445 v
    100 498 ]
    110.129 554.988 o
    137.219 596.999 o
    176 628 o
    204.525 642.099 o
    237.813 651.562 o
    275 655 o
    313.664 651.304 o
    352.666 640.022 o
    384 621 v
    383.971 620.737 v
    398.882 638.732 o
    416.443 654.366 o
    436 668 o
    464.562 682.099 o
    496.774 691.562 o
    530 695 o
    611.591 687.053 o
    675.381 663.265 o
    701 624 o
    695.936 602.277 o
    681.723 588.064 o
    660 583 o
    622.542 601.635 o
    596.11 636.365 o
    530 655 o
    473.818 641.585 o
    446.874 591.371 o
    440 490 [
    440 445 v
    560 445 v
    622.545 458.691 o
    660.772 471.309 o
    0 0 z
  EndSpiro
360 445 m 1
 360 543 l 1
 301 544 342 615 259 615 c 0
 180 615 180 535 180 450 c 2
 180 445 l 1
 360 445 l 1
EndSplineSet
Validated: 1
LCarets2: 2 270 530
Ligature2: "'liga' standard ligatures-subtable" f f i
EndChar

StartChar: f_l
Encoding: 64258 64258 137
Width: 525
VWidth: 838
Flags: HMW
LayerCount: 2
Back
SplineSet
430 485 m 5
 440 485 l 5
 440 30 l 5
 500 20 l 5
 500 0 l 5
 300 0 l 5
 300 20 l 5
 360 30 l 5
 360 385 l 5
 300 405 l 5
 180 405 l 5
 180 30 l 5
 240 20 l 5
 240 0 l 5
 40 0 l 5
 40 20 l 5
 100 30 l 5
 100 405 l 5
 20 405 l 5
 35 445 l 5
 100 445 l 5
 100 538 l 6
 100 604 133 641 176 668 c 4
 202 684 237 695 270 695 c 7
 354.053710938 695 441 671 441 624 c 4
 441 599 425 583 400 583 c 4
 340 583 373.083007812 655 270 655 c 7
 195.993243552 655 180 622 180 490 c 6
 180 445 l 5
 300 445 l 5
 380 460 400 470 430 485 c 5
EndSplineSet
Fore
SplineSet
300 405 m 5
 180 405 l 5
 180 30 l 5
 240 20 l 5
 240 0 l 5
 40 0 l 5
 40 20 l 5
 100 30 l 5
 100 405 l 5
 20 405 l 5
 35 445 l 5
 100 445 l 5
 100 538 l 6
 100 604 133 641 176 668 c 4
 202 684 237 695 270 695 c 4
 313 695 356 689 388 677 c 5
 404 683 416 688 430 695 c 5
 440 695 l 5
 440 624 l 5
 440 30 l 5
 500 20 l 5
 500 0 l 5
 300 0 l 5
 300 20 l 5
 360 30 l 5
 360 605 l 5
 346 626 335 655 270 655 c 4
 196 655 180 622 180 490 c 6
 180 445 l 5
 300 445 l 5
 300 405 l 5
EndSplineSet
Validated: 1
LCarets2: 1 260
Ligature2: "'liga' standard ligatures-subtable" f l
EndChar

StartChar: f_f_l
Encoding: 64260 64260 138
Width: 785
VWidth: 838
Flags: HMW
LayerCount: 2
Fore
SplineSet
560 405 m 1
 440 405 l 1
 440 30 l 1
 500 20 l 1
 500 0 l 1
 300 0 l 1
 300 20 l 1
 360 30 l 1
 360 405 l 1
 280 405 l 1
 180 405 l 1
 180 30 l 1
 240 20 l 1
 240 0 l 1
 40 0 l 1
 40 20 l 1
 100 30 l 1
 100 405 l 1
 20 405 l 1
 35 445 l 1
 100 445 l 1
 100 498 l 2
 100 564 133 601 176 628 c 0
 202 644 236 655 275 655 c 0
 311 655 359 644 384 621 c 1
 383.970827679 620.737449111 l 1
 397.417169903 640.10281386 415.58113787 655.178854012 436 668 c 0
 462 684 497 695 530 695 c 0
 573 695 616 689 648 677 c 1
 664 683 676 688 690 695 c 1
 700 695 l 1
 700 624 l 1
 700 30 l 1
 760 20 l 1
 760 0 l 1
 560 0 l 1
 560 20 l 1
 620 30 l 1
 620 605 l 1
 606 626 595 655 530 655 c 0
 456 655 440 622 440 490 c 2
 440 445 l 1
 560 445 l 1
 560 405 l 1
360 538 m 1
 360 543 l 1
 301 544 342 615 259 615 c 0
 180 615 180 535 180 450 c 2
 180 445 l 1
 295 445 l 1
 360 445 l 1
 360 538 l 1
EndSplineSet
Validated: 1
LCarets2: 2 270 530
Ligature2: "'liga' standard ligatures-subtable" f f l
EndChar

StartChar: T_h
Encoding: 65536 -1 139
Width: 1040
VWidth: 838
Flags: HMW
LayerCount: 2
Back
SplineSet
183.91796875 19.2822265625 m 1
 276.134765625 35.208984375 l 1
 276.134765625 587.669921875 l 1
 99.24609375 587.669921875 l 1
 66.5517578125 544.076171875 48.9462890625 514.735351562 30.50390625 461.08203125 c 1
 10.3837890625 461.08203125 l 1
 41.4013671875 645.514648438 l 1
 596.376953125 645.514648438 l 1
 627.39453125 461.08203125 l 1
 607.274414062 461.08203125 l 1
 588.83203125 514.735351562 571.2265625 544.076171875 538.53125 587.669921875 c 1
 364.158203125 587.669921875 l 1
 364.158203125 35.208984375 l 1
 455.537109375 19.2822265625 l 1
 455.537109375 0 l 1
 183.91796875 0 l 1
 183.91796875 19.2822265625 l 1
677.694335938 695.814453125 m 1
 687.754882812 695.814453125 l 1
 687.754882812 398.20703125 l 1
 729.670898438 435.09375 785.83984375 452.69921875 855.419921875 452.69921875 c 3
 906.559570312 452.69921875 947.63671875 428.38671875 958.53515625 388.147460938 c 0
 963.565429688 369.704101562 963.565429688 348.745117188 963.565429688 326.110351562 c 2
 963.565429688 326.110351562 963.565429688 127.426757812 963.565429688 28.50390625 c 1
 1026.44042969 16.7666015625 l 1
 1026.44042969 0 l 1
 821.048828125 0 l 1
 821.048828125 16.7666015625 l 1
 883.923828125 28.50390625 l 1
 883.923828125 274.97265625 l 2
 883.923828125 349.583007812 879.732421875 395.692382812 808.473632812 395.692382812 c 3
 761.52734375 395.692382812 721.288085938 380.602539062 687.754882812 344.5546875 c 1
 687.754882812 29.341796875 l 1
 750.62890625 16.7666015625 l 1
 750.62890625 0 l 1
 544.399414062 0 l 1
 544.399414062 16.7666015625 l 1
 608.112304688 29.341796875 l 1
 608.112304688 565.03515625 l 1
 545.23828125 587.669921875 l 1
 545.23828125 645.514648438 l 1
 623.203125 660.604492188 645.837890625 679.885742188 677.694335938 695.814453125 c 1
EndSplineSet
Fore
SplineSet
677 696 m 1
 687 696 l 1
 687 398 l 1
 729 435 786 453 855 453 c 0
 906 453 949 429 958 388 c 0
 962 369 962 349 962 326 c 2
 962 326 962 128 962 29 c 1
 1025 17 l 1
 1025 0 l 1
 821 0 l 1
 821 17 l 1
 883 29 l 1
 883 275 l 2
 883 349 878 396 807 396 c 0
 760 396 720 380 687 344 c 1
 687 29 l 1
 749 17 l 1
 749 0 l 1
 544 0 l 1
 544 17 l 1
 608 29 l 1
 608 461 l 2
 608 551 607 588 538 588 c 2
 364 588 l 1
 364 35 l 1
 456 20 l 1
 456 0 l 1
 184 0 l 1
 184 20 l 1
 276 35 l 1
 276 588 l 1
 99 588 l 1
 66 545 50 515 31 461 c 1
 10 461 l 1
 41 645 l 1
 545 645 l 1
 623 661 645 680 677 696 c 1
EndSplineSet
Validated: 1
LCarets2: 1 0
Ligature2: "'dlig' discretionary/historic ligatures-subtable" T h
EndChar
